<?xml version="1.0" encoding="utf-8"?>
<!-- Generator: Adobe Illustrator 26.5.0, SVG Export Plug-In . SVG Version: 6.00 Build 0)  -->
<svg version="1.1" id="Capa_1" xmlns="http://www.w3.org/2000/svg" xmlns:xlink="http://www.w3.org/1999/xlink" x="0px" y="0px"
	 viewBox="0 0 1024 768" style="enable-background:new 0 0 1024 768;" xml:space="preserve">
<style type="text/css">
	.st0{fill:#FFFFFF;}
	.st1{opacity:0.7;fill:#E5DFD7;}
	.st2{fill:#323334;}
	.st3{font-family:'SourceSans3-Black';}
	.st4{font-size:17px;}
	.st5{font-family:'SourceSans3-SemiBold';}
	.st6{font-size:12px;}
	.st7{font-family:'SourceSans3-Regular';}
	.st8{font-size:11.5173px;}
	.st9{opacity:0.8;fill:none;stroke:#5C5C5C;stroke-width:2;stroke-miterlimit:10;}
	.st10{fill:none;stroke:#333333;stroke-width:5;stroke-miterlimit:10;}
	.st11{fill:none;stroke:#3674D5;stroke-width:3;stroke-miterlimit:10;}
	.st12{fill:none;stroke:#E9524A;stroke-width:3;stroke-linecap:round;stroke-linejoin:round;}
	.st13{fill:none;stroke:#E9524A;stroke-width:3;stroke-linecap:round;stroke-linejoin:round;stroke-dasharray:11.6319,11.6319;}
	.st14{fill:none;stroke:#E9524A;stroke-width:3;stroke-linecap:round;stroke-linejoin:round;stroke-dasharray:12.0491,12.0491;}
	.st15{fill:#323232;}
	.st16{fill:#F58D57;}
	
		.st17{fill:none;stroke:#E9524A;stroke-width:3;stroke-linecap:round;stroke-linejoin:round;stroke-miterlimit:10;stroke-dasharray:12;}
</style>
<rect x="-0.43" y="-0.26" class="st0" width="1024" height="768"/>
<path class="st1" d="M411.24,709.68l0.44-7.48c0,0,19.35-6.6,3.96-9.68c-15.39-3.08-11.87-13.19-13.63-18.91
	c-1.76-5.72,4.84-11.43,4.84-19.35s-1.32-5.28-7.04-5.28c-5.72,0-12.75-2.64-19.79-4.84s-5.28-7.48-5.28-15.39s5.28-7.92,10.99-7.92
	c5.72,0,16.71-4.4,24.19-4.4s8.36-3.96,8.66-16.27c0.3-12.31,0.58-5.28,0.14-14.51s0-4.4,3.52-6.16c3.52-1.76,2.2-9.68,2.2-20.23
	c0-10.56,4.84,0,3.6-7.48s6.96-8.36,8.27-14.95s4.84-6.16,4.84-13.63c0-7.48-8.36-4.4-11.87-11.43s-1.28-9.25,5.76-9.69
	s0.44-4.84,5.28-6.16c4.84-1.32,6.55,4.41,8.75-5.98c2.2-10.39,0-10.28,0-14.23s8.36-8.36,11.02-14.07
	c2.66-5.72-0.46-7.48,7.01-15.39c7.48-7.92,7.04,0.44,11.43-3.08s1.76-7.92,6.6-10.12c4.84-2.2,2.2-23.31,2.2-30.93
	s1.76-3.82,5.72-8.22s8.36,2.64,15.83,6.6c7.48,3.96,0,0,4.08-4.84c4.08-4.84,1.64-2.64,11.76-3.08c10.12-0.44,2.2-15.83-1.76-19.04
	s-7.48-10.87-1.76-16.59c5.72-5.72,3.08-3.52,0-11.34s3.52-1.41,2.2-10.21c-1.32-8.8-3.52-8.36-10.44-9.24
	c-6.92-0.88-1.44-9.68,3.84-14.51c5.28-4.84-0.88-9.68-3.84-15.56c-2.96-5.89-2.76-12.15-2.76-19.62s7.48-12.75,5.28-16.71
	c-2.2-3.96,2.2-11.87,3.08-19.43c0.88-7.56,0-11.79,0.44-17.57c0.44-5.78,3.96-6.54,7.04-14.01s1.76-15.39,5.28-16.71
	c3.52-1.32,3.52-10.99,3.52-19.21s-6.03-5.21-6.87-14.43c-0.84-9.22-11.73-0.84-20.95,1.68c-9.22,2.51-5.87,1.68-10.31,8.1
	c-4.44,6.42-3.94,1.96-8.96-6.42c-5.03-8.38-1.68-4.19-9.34-14.75c-7.67-10.56,2.64-22.12,0-30.5s-1.55-6.7,0-15.08
	s5.99-6.7,15.21-22.62s-4.19-8.38-13.41-20.11c-9.22-11.73-8.38-3.35-12.57-14.24c-4.19-10.89-7.54-12.61-7.54-12.61l-58.04,10.13
	c-4.46,10.13,0,0,6.71,9.04s-18.98,1-35.7,9.91c-16.72,8.92,0,0-13.19-2.84s-18.03-22.84-18.03-22.84s7.8,21.22,6.65,40.18
	s-11.11-8.92-25.61-17.34c-14.49-8.42-11.15,24.03-10.83,34.58s-4.78,24.01,0,39.21s10.83,5.98,15.29,10.11
	c4.46,4.13-14.49,13.71-13.38,21.51c1.11,7.8,0,0,15.61,1.11c15.61,1.11,0-15.61,8.24-22.99c8.24-7.38,9.6,5.15,22.06,2.8
	c12.45-2.35,6.5-8.8,9.84-12.55c3.34-3.75,10.03,7.09,17.84,10.11c7.8,3.02,14.49,20.4,21.21,28.63s3.32,10.72-6.71,21.35
	c-10.03,10.63,5.57,27.27,11.15,30.81c5.57,3.54-10.03,18.76-22.3,27.68c-12.26,8.92,1.11,21.18,0,33.45
	c-1.11,12.26-6.69,8.92-8.96,25.64s6.73,31.22,0.68,41.25c-6.04,10.03,2.17,21.18,24,22.68s5.46,16.34,11.03,29.36
	c5.57,13.02,1.11,10.39-8.9,21.54s-2.25-16.72-12.29-7.49c-10.03,9.23-22.3-1.43-27.87-5.37c-5.57-3.94-6.69,12.86-9.73,28.47
	c-3.04,15.61,5.27,2.23,15.67,8.92s-5.95,11.15-12.36,11.15c-6.41,0-6.97,15.61,0,29.35c6.97,13.74,8.64,15.25,3.07,30.86
	c-5.57,15.61,0,0,3.34,16.72c3.34,16.72-23.41,1.11-13.04,15.61c10.37,14.49,1.89,13.38,0,32.33c-1.89,18.95-14.83,11.15-29.5,12.71
	c-14.67,1.56-3.17,10.7,2.4,28.54c5.57,17.84,3.34,6.69,0,27.87c-1.4,8.88-1.11,13.38-12.26,22.3s0,0-13.38,6.59
	s0,11.25-21.18,11.08c-21.18-0.17,35.68,21.27,35.68,21.27L411.24,709.68z"/>
<text transform="matrix(1 0 0 1 221.2605 344.5335)" class="st2 st3 st4">CHILE</text>
<text transform="matrix(1.1219 0 0 1 712.6034 344.7134)" class="st2 st3 st4">ARGENTINA</text>
<text transform="matrix(1 0 0 1 202.819 569.243)" class="st2 st5 st6">Curicó</text>
<g>
	<text transform="matrix(1 0 0 1 583.8494 690.3916)" class="st2 st5 st6">Malargüe</text>
</g>
<text transform="matrix(1 0 0 1 336.4609 188.349)" class="st2 st5 st6">Santiago</text>
<text transform="matrix(1.0419 0 0 1 466.3196 509.2794)"><tspan x="0" y="0" class="st2 st7 st8">Zona del</tspan><tspan x="0" y="13.82" class="st2 st7 st8">accidente</tspan></text>
<g>
	<text transform="matrix(1 0 0 1 702.2679 49.8564)" class="st2 st5 st6">Mendoza</text>
</g>
<path class="st9" d="M73.32,520.23c0,0,9.63-11.73,11.31-31.84c1.68-20.11-5.03-18.17,0-28.78c5.03-10.61,9.22-7.14,5.87-18.93
	s-4.19,6.03,4.19-15.87s10.06-17.52,5.03-41.08c-5.03-23.55-13.62-25.35,2.83-39.11s3.88-20.47,16.44-29.69
	c12.57-9.22,10.06-13.17,12.57-26.7c2.51-13.52,5.03,1.56,17.6-13.52s31.84-43.58,26.81-51.54c-5.03-7.96-14.24-3.77-16.76-18.01
	c-2.51-14.24,4.19-18.07,3.35-33.33c-0.84-15.27-5.87-19.35-7.54-31.13c-1.68-11.79-14.24-26.87-7.54-26.87s37.71-14.24,38.54-30.17
	s10.89-5.87,5.87-21.79s1.13-24.25,1.4-27.65"/>
<path class="st10" d="M459.19,30.83c0,0,3.35,1.72,7.54,12.61c4.19,10.89,3.35,2.51,12.57,14.24c9.22,11.73,22.62,4.19,13.41,20.11
	c-9.22,15.92-13.66,14.24-15.21,22.62c-1.55,8.38-2.64,6.7,0,15.08c2.64,8.38-7.67,19.94,0,30.5c7.67,10.56,4.32,6.37,9.34,14.75
	c5.03,8.38,4.52,12.84,8.96,6.42c4.44-6.42,1.09-5.58,10.31-8.1c9.22-2.51,20.11-10.89,20.95-1.68c0.84,9.22,6.87,6.22,6.87,14.43
	s0,17.89-3.52,19.21c-3.52,1.32-2.2,9.24-5.28,16.71s-6.6,8.24-7.04,14.01c-0.44,5.78,0.44,10.01-0.44,17.57
	c-0.88,7.56-5.28,15.47-3.08,19.43c2.2,3.96-5.28,9.24-5.28,16.71s-0.2,13.74,2.76,19.62c2.96,5.89,9.12,10.72,3.84,15.56
	c-5.28,4.84-10.76,13.63-3.84,14.51c6.92,0.88,9.12,0.44,10.44,9.24c1.32,8.8-5.28,2.39-2.2,10.21s5.72,5.62,0,11.34
	c-5.72,5.72-2.2,13.38,1.76,16.59s11.87,18.6,1.76,19.04c-10.12,0.44-7.68-1.76-11.76,3.08c-4.08,4.84,3.4,8.8-4.08,4.84
	c-7.48-3.96-11.87-10.99-15.83-6.6s-5.72,0.6-5.72,8.22s2.64,28.73-2.2,30.93c-4.84,2.2-2.2,6.6-6.6,10.12
	c-4.4,3.52-3.96-4.84-11.43,3.08c-7.48,7.92-4.35,9.68-7.01,15.39c-2.66,5.72-11.02,10.12-11.02,14.07s2.2,3.84,0,14.23
	c-2.2,10.39-3.92,4.66-8.75,5.98c-4.84,1.32,1.76,5.72-5.28,6.16s-9.28,2.65-5.76,9.69c3.52,7.04,11.87,3.96,11.87,11.43
	s-3.52,7.04-4.84,13.63c-1.32,6.6-9.51,7.48-8.27,14.95c1.24,7.48-3.6-3.08-3.6,7.48c0,10.56,1.32,18.47-2.2,20.23
	s-3.96-3.08-3.52,6.16s0.16,2.2-0.14,14.51c-0.3,12.31-1.18,16.27-8.66,16.27s-18.47,4.4-24.19,4.4c-5.72,0-10.99,0-10.99,7.92
	s-1.76,13.19,5.28,15.39c7.04,2.2,14.07,4.84,19.79,4.84c5.72,0,7.04-2.64,7.04,5.28s-6.6,13.63-4.84,19.35
	c1.76,5.72-1.76,15.83,13.63,18.91s-3.96,9.68-3.96,9.68l-0.44,7.48"/>
<circle class="st2" cx="357.98" cy="201.22" r="3.31"/>
<circle class="st2" cx="719.26" cy="60.38" r="3.31"/>
<polyline class="st11" points="712.28,90.26 572.17,687.08 381.04,617.96 433.03,518.66 "/>
<g>
	<g>
		<line class="st12" x1="376.42" y1="616.47" x2="370.82" y2="614.3"/>
		<line class="st13" x1="359.97" y1="610.1" x2="256.93" y2="570.2"/>
		<polyline class="st12" points="251.5,568.1 245.91,565.93 248.63,560.58 		"/>
		<polyline class="st14" points="254.09,549.84 344.25,372.55 357,216.52 		"/>
		<line class="st12" x1="357.49" y1="210.51" x2="357.98" y2="204.53"/>
	</g>
</g>
<text transform="matrix(1 0 0 1 357.9761 372.548)" class="st2 st5 st6">Rancagua</text>
<path class="st15" d="M696.35,76.87l-0.76,1.81l11.88,18.27c0,0,0.43,0.6,0.69,2.04l0-0.01c-0.62,2.61-1.18,5.14-1.57,7.36
	c-0.74,4.19-0.63,7.31,0.23,7.53l0,0c0.86,0.22,2.45-2.47,3.81-6.5c0.72-2.13,1.45-4.62,2.15-7.21l0,0.01
	c0.92-1.14,1.58-1.46,1.58-1.46l19.18-10.35l0.2-1.95l-18.72,4.88l0,0c1.31-5.53,2.28-10.09,2.46-10.82
	c0.12-0.49,0.3-2.43,0.41-4.43l0,0l5.8-2.32l0.28-1.1l-6-0.69l0,0c-0.03-0.6-0.09-0.98-0.19-1c-0.11-0.03-0.34,0.28-0.65,0.79l0,0
	l-5.6-2.27l-0.28,1.1l3.98,4.82l0,0c-0.86,1.81-1.64,3.6-1.76,4.09c-0.19,0.73-1.53,5.2-3.02,10.68l0,0L696.35,76.87z"/>
<polygon class="st16" points="434.04,501.08 438.97,511.07 450,512.68 442.02,520.46 443.9,531.44 434.04,526.26 424.17,531.44 
	426.06,520.46 418.07,512.68 429.11,511.07 "/>
<polygon class="st16" points="424.87,503.41 434.5,509.04 444.59,504.31 442.21,515.2 449.83,523.33 438.74,524.43 433.36,534.19 
	428.88,523.98 417.93,521.88 426.26,514.47 "/>
<circle class="st2" cx="572.17" cy="687.08" r="3.31"/>
<circle class="st2" cx="245.91" cy="565.93" r="3.31"/>
<rect x="788.22" y="491.64" class="st10" width="26.54" height="26.54"/>
<text transform="matrix(1 0 0 1 824.2861 506.9115)" class="st2 st5 st6">Frontera Chile - Argentina</text>
<rect x="788.22" y="528.82" class="st9" width="26.54" height="26.54"/>
<text transform="matrix(1 0 0 1 825.2825 547.7075)" class="st2 st5 st6">Costa de Chile</text>
<polygon class="st16" points="801.71,652.32 806.64,662.32 817.67,663.92 809.69,671.7 811.57,682.69 801.71,677.5 791.84,682.69 
	793.73,671.7 785.74,663.92 796.77,662.32 "/>
<polygon class="st16" points="792.54,654.65 802.16,660.28 812.26,655.55 809.88,666.44 817.5,674.57 806.41,675.67 801.02,685.43 
	796.55,675.23 785.6,673.12 793.93,665.71 "/>
<text transform="matrix(1 0 0 1 826.0114 672.3658)" class="st2 st5 st6">Zona del accidente</text>
<rect x="788.43" y="566.01" class="st11" width="26.54" height="26.54"/>
<text transform="matrix(1 0 0 1 826.4912 583.791)" class="st2 st5 st6">Trayecto realizado </text>
<rect x="788.43" y="609.16" class="st17" width="26.54" height="26.54"/>
<text transform="matrix(1 0 0 1 826.8024 622.3748)"><tspan x="0" y="0" class="st2 st5 st6">Rutal incial con destino </tspan><tspan x="0" y="14.4" class="st2 st5 st6">a Santiago </tspan></text>
<rect x="788.22" y="454.46" class="st1" width="26.54" height="26.54"/>
<text transform="matrix(1 0 0 1 825.2821 476.0291)" class="st2 st5 st6">Condillera de Los Andes</text>
</svg>
