<?xml version="1.0" encoding="utf-8"?>
<!-- Generator: Adobe Illustrator 26.5.0, SVG Export Plug-In . SVG Version: 6.00 Build 0)  -->
<svg version="1.1" id="Capa_1" xmlns="http://www.w3.org/2000/svg" xmlns:xlink="http://www.w3.org/1999/xlink" x="0px" y="0px"
	 viewBox="0 0 1024 768" style="enable-background:new 0 0 1024 768;" xml:space="preserve">
<style type="text/css">
	.st0{fill:#FFFFFF;}
	.st1{fill:#4673CF;}
	.st2{fill:#D95D51;}
	.st3{fill:#D95E50;}
	.st4{fill:#E89362;}
	.st5{font-family:'SourceSans3-Regular';}
	.st6{font-size:13.6836px;}
	.st7{fill:#E5E0D9;}
	.st8{font-size:46.4652px;}
	.st9{font-size:35.5833px;}
</style>
<rect class="st0" width="1024" height="768"/>
<path class="st1" d="M125.17,140.17c0-11.69,0-23.38,0-35.07c0-0.91,0.13-2.08-1.14-2.1c-1.31-0.03-1.15,1.17-1.15,2.06
	c-0.01,7.83,0,15.66,0,23.5c0,1.6-0.22,3.11-1.73,4.07c-1.28,0.81-2.61,0.92-3.97,0.26c-1.41-0.68-2.2-1.83-2.21-3.41
	c-0.01-9.86-0.11-19.72,0.04-29.58c0.1-6.32,5.27-11.2,11.58-11.26c6.48-0.05,12.96-0.05,19.44,0c6.42,0.05,11.7,5.04,11.81,11.5
	c0.16,9.66,0.08,19.32,0.04,28.98c-0.01,2.61-1.68,4.22-4.06,4.16c-2.31-0.06-3.79-1.69-3.79-4.28c-0.01-7.95-0.01-15.9-0.01-23.86
	c0-0.32,0.11-0.71-0.03-0.94c-0.29-0.45-0.72-0.82-1.1-1.22c-0.37,0.4-0.84,0.74-1.08,1.2c-0.18,0.35-0.05,0.86-0.05,1.29
	c0,22.82,0,45.64,0,68.46c0,0.71-0.03,1.43-0.1,2.14c-0.26,2.79-2.34,4.66-5.1,4.63c-2.59-0.03-4.73-2.08-4.94-4.73
	c-0.05-0.63-0.05-1.27-0.05-1.91c-0.03-13-0.05-26-0.09-39c0-0.88,0.24-2.12-1.03-2.17c-1.38-0.05-1.17,1.22-1.17,2.15
	c0,13.24-0.02,26.48,0.01,39.72c0,1.89-0.38,3.55-1.91,4.77c-1.53,1.22-3.22,1.51-5.03,0.78c-1.87-0.75-2.89-2.17-3.11-4.16
	c-0.08-0.67-0.07-1.35-0.07-2.03C125.17,162.83,125.17,151.5,125.17,140.17z"/>
<path class="st1" d="M127.81,77.65c0.03-4.69,3.93-8.55,8.61-8.54c4.65,0.02,8.58,3.95,8.58,8.59c0,4.7-4.01,8.66-8.7,8.6
	C131.61,86.24,127.78,82.34,127.81,77.65z"/>
<path class="st1" d="M184.74,140.17c0-11.69,0-23.38,0-35.07c0-0.91,0.13-2.08-1.14-2.1c-1.31-0.03-1.15,1.17-1.15,2.06
	c-0.01,7.83,0,15.66,0,23.5c0,1.6-0.22,3.11-1.73,4.07c-1.28,0.81-2.61,0.92-3.97,0.26c-1.41-0.68-2.2-1.83-2.21-3.41
	c-0.01-9.86-0.11-19.72,0.04-29.58c0.1-6.32,5.27-11.2,11.58-11.26c6.48-0.05,12.96-0.05,19.44,0c6.42,0.05,11.7,5.04,11.81,11.5
	c0.16,9.66,0.08,19.32,0.04,28.98c-0.01,2.61-1.68,4.22-4.06,4.16c-2.31-0.06-3.79-1.69-3.79-4.28c-0.01-7.95-0.01-15.9-0.01-23.86
	c0-0.32,0.11-0.71-0.03-0.94c-0.29-0.45-0.72-0.82-1.1-1.22c-0.37,0.4-0.84,0.74-1.08,1.2c-0.18,0.35-0.05,0.86-0.05,1.29
	c0,22.82,0,45.64,0,68.46c0,0.71-0.03,1.43-0.1,2.14c-0.26,2.79-2.34,4.66-5.1,4.63c-2.59-0.03-4.73-2.08-4.94-4.73
	c-0.05-0.63-0.05-1.27-0.05-1.91c-0.03-13-0.05-26-0.09-39c0-0.88,0.24-2.12-1.03-2.17c-1.38-0.05-1.17,1.22-1.17,2.15
	c0,13.24-0.02,26.48,0.01,39.72c0,1.89-0.38,3.55-1.91,4.77c-1.53,1.22-3.22,1.51-5.03,0.78c-1.87-0.75-2.89-2.17-3.11-4.16
	c-0.08-0.67-0.07-1.35-0.07-2.03C184.74,162.83,184.74,151.5,184.74,140.17z"/>
<path class="st1" d="M187.38,77.65c0.03-4.69,3.93-8.55,8.61-8.54c4.65,0.02,8.58,3.95,8.58,8.59c0,4.7-4.01,8.66-8.7,8.6
	C191.18,86.24,187.35,82.34,187.38,77.65z"/>
<path class="st1" d="M244.25,140.17c0-11.69,0-23.38,0-35.07c0-0.91,0.13-2.08-1.14-2.1c-1.31-0.03-1.15,1.17-1.15,2.06
	c-0.01,7.83,0,15.66,0,23.5c0,1.6-0.22,3.11-1.73,4.07c-1.28,0.81-2.61,0.92-3.97,0.26c-1.41-0.68-2.2-1.83-2.21-3.41
	c-0.01-9.86-0.11-19.72,0.04-29.58c0.1-6.32,5.27-11.2,11.58-11.26c6.48-0.05,12.96-0.05,19.44,0c6.42,0.05,11.7,5.04,11.81,11.5
	c0.16,9.66,0.08,19.32,0.04,28.98c-0.01,2.61-1.68,4.22-4.06,4.16c-2.31-0.06-3.79-1.69-3.79-4.28c-0.01-7.95-0.01-15.9-0.01-23.86
	c0-0.32,0.11-0.71-0.03-0.94c-0.29-0.45-0.72-0.82-1.1-1.22c-0.37,0.4-0.84,0.74-1.08,1.2c-0.18,0.35-0.05,0.86-0.05,1.29
	c0,22.82,0,45.64,0,68.46c0,0.71-0.03,1.43-0.1,2.14c-0.26,2.79-2.34,4.66-5.1,4.63c-2.59-0.03-4.73-2.08-4.94-4.73
	c-0.05-0.63-0.05-1.27-0.05-1.91c-0.03-13-0.05-26-0.09-39c0-0.88,0.24-2.12-1.03-2.17c-1.38-0.05-1.17,1.22-1.17,2.15
	c0,13.24-0.02,26.48,0.01,39.72c0,1.89-0.38,3.55-1.91,4.77c-1.53,1.22-3.22,1.51-5.03,0.78c-1.87-0.75-2.89-2.17-3.11-4.16
	c-0.08-0.67-0.07-1.35-0.07-2.03C244.25,162.83,244.25,151.5,244.25,140.17z"/>
<path class="st1" d="M246.89,77.65c0.03-4.69,3.93-8.55,8.61-8.54c4.65,0.02,8.58,3.95,8.58,8.59c0,4.7-4.01,8.66-8.7,8.6
	C250.69,86.24,246.86,82.34,246.89,77.65z"/>
<path class="st1" d="M303.51,140.17c0-11.69,0-23.38,0-35.07c0-0.91,0.13-2.08-1.14-2.1c-1.31-0.03-1.15,1.17-1.15,2.06
	c-0.01,7.83,0,15.66,0,23.5c0,1.6-0.22,3.11-1.73,4.07c-1.28,0.81-2.61,0.92-3.97,0.26c-1.41-0.68-2.2-1.83-2.21-3.41
	c-0.01-9.86-0.11-19.72,0.04-29.58c0.1-6.32,5.27-11.2,11.58-11.26c6.48-0.05,12.96-0.05,19.44,0c6.42,0.05,11.7,5.04,11.81,11.5
	c0.16,9.66,0.08,19.32,0.04,28.98c-0.01,2.61-1.68,4.22-4.06,4.16c-2.31-0.06-3.79-1.69-3.79-4.28c-0.01-7.95-0.01-15.9-0.01-23.86
	c0-0.32,0.11-0.71-0.03-0.94c-0.29-0.45-0.72-0.82-1.1-1.22c-0.37,0.4-0.84,0.74-1.08,1.2c-0.18,0.35-0.05,0.86-0.05,1.29
	c0,22.82,0,45.64,0,68.46c0,0.71-0.03,1.43-0.1,2.14c-0.26,2.79-2.34,4.66-5.1,4.63c-2.59-0.03-4.73-2.08-4.94-4.73
	c-0.05-0.63-0.05-1.27-0.05-1.91c-0.03-13-0.05-26-0.09-39c0-0.88,0.24-2.12-1.03-2.17c-1.38-0.05-1.17,1.22-1.17,2.15
	c0,13.24-0.02,26.48,0.01,39.72c0,1.89-0.38,3.55-1.91,4.77c-1.53,1.22-3.22,1.51-5.03,0.78c-1.87-0.75-2.89-2.17-3.11-4.16
	c-0.08-0.67-0.07-1.35-0.07-2.03C303.51,162.83,303.51,151.5,303.51,140.17z"/>
<path class="st1" d="M306.15,77.65c0.03-4.69,3.93-8.55,8.61-8.54c4.65,0.02,8.58,3.95,8.58,8.59c0,4.7-4.01,8.66-8.7,8.6
	C309.95,86.24,306.12,82.34,306.15,77.65z"/>
<path class="st1" d="M363.08,140.17c0-11.69,0-23.38,0-35.07c0-0.91,0.13-2.08-1.14-2.1c-1.31-0.03-1.15,1.17-1.15,2.06
	c-0.01,7.83,0,15.66,0,23.5c0,1.6-0.22,3.11-1.73,4.07c-1.28,0.81-2.61,0.92-3.97,0.26c-1.41-0.68-2.2-1.83-2.21-3.41
	c-0.01-9.86-0.11-19.72,0.04-29.58c0.1-6.32,5.27-11.2,11.58-11.26c6.48-0.05,12.96-0.05,19.44,0c6.42,0.05,11.7,5.04,11.81,11.5
	c0.16,9.66,0.08,19.32,0.04,28.98c-0.01,2.61-1.68,4.22-4.06,4.16c-2.31-0.06-3.79-1.69-3.79-4.28c-0.01-7.95-0.01-15.9-0.01-23.86
	c0-0.32,0.11-0.71-0.03-0.94c-0.29-0.45-0.72-0.82-1.1-1.22c-0.37,0.4-0.84,0.74-1.08,1.2c-0.18,0.35-0.05,0.86-0.05,1.29
	c0,22.82,0,45.64,0,68.46c0,0.71-0.03,1.43-0.1,2.14c-0.26,2.79-2.34,4.66-5.1,4.63c-2.59-0.03-4.73-2.08-4.94-4.73
	c-0.05-0.63-0.05-1.27-0.05-1.91c-0.03-13-0.05-26-0.09-39c0-0.88,0.24-2.12-1.03-2.17c-1.38-0.05-1.17,1.22-1.17,2.15
	c0,13.24-0.02,26.48,0.01,39.72c0,1.89-0.38,3.55-1.91,4.77c-1.53,1.22-3.22,1.51-5.03,0.78c-1.87-0.75-2.89-2.17-3.11-4.16
	c-0.08-0.67-0.07-1.35-0.07-2.03C363.08,162.83,363.08,151.5,363.08,140.17z"/>
<path class="st1" d="M365.72,77.65c0.03-4.69,3.93-8.55,8.61-8.54c4.65,0.02,8.58,3.95,8.58,8.59c0,4.7-4.01,8.66-8.7,8.6
	C369.52,86.24,365.69,82.34,365.72,77.65z"/>
<path class="st2" d="M422.6,140.17c0-11.69,0-23.38,0-35.07c0-0.91,0.13-2.08-1.14-2.1c-1.31-0.03-1.15,1.17-1.15,2.06
	c-0.01,7.83,0,15.66,0,23.5c0,1.6-0.22,3.11-1.73,4.07c-1.28,0.81-2.61,0.92-3.97,0.26c-1.41-0.68-2.2-1.83-2.21-3.41
	c-0.01-9.86-0.11-19.72,0.04-29.58c0.1-6.32,5.27-11.2,11.58-11.26c6.48-0.05,12.96-0.05,19.44,0c6.42,0.05,11.7,5.04,11.81,11.5
	c0.16,9.66,0.08,19.32,0.04,28.98c-0.01,2.61-1.68,4.22-4.06,4.16c-2.31-0.06-3.79-1.69-3.79-4.28c-0.01-7.95-0.01-15.9-0.01-23.86
	c0-0.32,0.11-0.71-0.03-0.94c-0.29-0.45-0.72-0.82-1.1-1.22c-0.37,0.4-0.84,0.74-1.08,1.2c-0.18,0.35-0.05,0.86-0.05,1.29
	c0,22.82,0,45.64,0,68.46c0,0.71-0.03,1.43-0.1,2.14c-0.26,2.79-2.34,4.66-5.1,4.63c-2.59-0.03-4.73-2.08-4.94-4.73
	c-0.05-0.63-0.05-1.27-0.05-1.91c-0.03-13-0.05-26-0.09-39c0-0.88,0.24-2.12-1.03-2.17c-1.38-0.05-1.17,1.22-1.17,2.15
	c0,13.24-0.02,26.48,0.01,39.72c0,1.89-0.38,3.55-1.91,4.77c-1.53,1.22-3.22,1.51-5.03,0.78c-1.87-0.75-2.89-2.17-3.11-4.16
	c-0.08-0.67-0.07-1.35-0.07-2.03C422.6,162.83,422.6,151.5,422.6,140.17z"/>
<path class="st2" d="M425.24,77.65c0.03-4.69,3.93-8.55,8.61-8.54c4.65,0.02,8.58,3.95,8.58,8.59c0,4.7-4.01,8.66-8.7,8.6
	C429.04,86.24,425.21,82.34,425.24,77.65z"/>
<path class="st2" d="M484.67,140.17c0-11.69,0-23.38,0-35.07c0-0.91,0.13-2.08-1.14-2.1c-1.31-0.03-1.15,1.17-1.15,2.06
	c-0.01,7.83,0,15.66,0,23.5c0,1.6-0.22,3.11-1.73,4.07c-1.28,0.81-2.61,0.92-3.97,0.26c-1.41-0.68-2.2-1.83-2.21-3.41
	c-0.01-9.86-0.11-19.72,0.04-29.58c0.1-6.32,5.27-11.2,11.58-11.26c6.48-0.05,12.96-0.05,19.44,0c6.42,0.05,11.7,5.04,11.81,11.5
	c0.16,9.66,0.08,19.32,0.04,28.98c-0.01,2.61-1.68,4.22-4.06,4.16c-2.31-0.06-3.79-1.69-3.79-4.28c-0.01-7.95-0.01-15.9-0.01-23.86
	c0-0.32,0.11-0.71-0.03-0.94c-0.29-0.45-0.72-0.82-1.1-1.22c-0.37,0.4-0.84,0.74-1.08,1.2c-0.18,0.35-0.05,0.86-0.05,1.29
	c0,22.82,0,45.64,0,68.46c0,0.71-0.03,1.43-0.1,2.14c-0.26,2.79-2.34,4.66-5.1,4.63c-2.59-0.03-4.73-2.08-4.94-4.73
	c-0.05-0.63-0.05-1.27-0.05-1.91c-0.03-13-0.05-26-0.09-39c0-0.88,0.24-2.12-1.03-2.17c-1.38-0.05-1.17,1.22-1.17,2.15
	c0,13.24-0.02,26.48,0.01,39.72c0,1.89-0.38,3.55-1.91,4.77c-1.53,1.22-3.22,1.51-5.03,0.78c-1.87-0.75-2.89-2.17-3.11-4.16
	c-0.08-0.67-0.07-1.35-0.07-2.03C484.67,162.83,484.67,151.5,484.67,140.17z"/>
<path class="st2" d="M487.31,77.65c0.03-4.69,3.93-8.55,8.61-8.54c4.65,0.02,8.58,3.95,8.58,8.59c0,4.7-4.01,8.66-8.7,8.6
	C491.11,86.24,487.28,82.34,487.31,77.65z"/>
<path class="st2" d="M544.25,140.17c0-11.69,0-23.38,0-35.07c0-0.91,0.13-2.08-1.14-2.1c-1.31-0.03-1.15,1.17-1.15,2.06
	c-0.01,7.83,0,15.66,0,23.5c0,1.6-0.22,3.11-1.73,4.07c-1.28,0.81-2.61,0.92-3.97,0.26c-1.41-0.68-2.2-1.83-2.21-3.41
	c-0.01-9.86-0.11-19.72,0.04-29.58c0.1-6.32,5.27-11.2,11.58-11.26c6.48-0.05,12.96-0.05,19.44,0c6.42,0.05,11.7,5.04,11.81,11.5
	c0.16,9.66,0.08,19.32,0.04,28.98c-0.01,2.61-1.68,4.22-4.06,4.16c-2.31-0.06-3.79-1.69-3.79-4.28c-0.01-7.95-0.01-15.9-0.01-23.86
	c0-0.32,0.11-0.71-0.03-0.94c-0.29-0.45-0.72-0.82-1.1-1.22c-0.37,0.4-0.84,0.74-1.08,1.2c-0.18,0.35-0.05,0.86-0.05,1.29
	c0,22.82,0,45.64,0,68.46c0,0.71-0.03,1.43-0.1,2.14c-0.26,2.79-2.34,4.66-5.1,4.63c-2.59-0.03-4.73-2.08-4.94-4.73
	c-0.05-0.63-0.05-1.27-0.05-1.91c-0.03-13-0.05-26-0.09-39c0-0.88,0.24-2.12-1.03-2.17c-1.38-0.05-1.17,1.22-1.17,2.15
	c0,13.24-0.02,26.48,0.01,39.72c0,1.89-0.38,3.55-1.91,4.77c-1.53,1.22-3.22,1.51-5.03,0.78c-1.87-0.75-2.89-2.17-3.11-4.16
	c-0.08-0.67-0.07-1.35-0.07-2.03C544.24,162.83,544.25,151.5,544.25,140.17z"/>
<path class="st2" d="M546.89,77.65c0.03-4.69,3.93-8.55,8.61-8.54c4.65,0.02,8.58,3.95,8.58,8.59c0,4.7-4.01,8.66-8.7,8.6
	C550.69,86.24,546.85,82.34,546.89,77.65z"/>
<path class="st2" d="M603.76,140.17c0-11.69,0-23.38,0-35.07c0-0.91,0.13-2.08-1.14-2.1c-1.31-0.03-1.15,1.17-1.15,2.06
	c-0.01,7.83,0,15.66,0,23.5c0,1.6-0.22,3.11-1.73,4.07c-1.28,0.81-2.61,0.92-3.97,0.26c-1.41-0.68-2.2-1.83-2.21-3.41
	c-0.01-9.86-0.11-19.72,0.04-29.58c0.1-6.32,5.27-11.2,11.58-11.26c6.48-0.05,12.96-0.05,19.44,0c6.42,0.05,11.7,5.04,11.81,11.5
	c0.16,9.66,0.08,19.32,0.04,28.98c-0.01,2.61-1.68,4.22-4.06,4.16c-2.31-0.06-3.79-1.69-3.79-4.28c-0.01-7.95-0.01-15.9-0.01-23.86
	c0-0.32,0.11-0.71-0.03-0.94c-0.29-0.45-0.72-0.82-1.1-1.22c-0.37,0.4-0.84,0.74-1.08,1.2c-0.18,0.35-0.05,0.86-0.05,1.29
	c0,22.82,0,45.64,0,68.46c0,0.71-0.03,1.43-0.1,2.14c-0.26,2.79-2.34,4.66-5.1,4.63c-2.59-0.03-4.73-2.08-4.94-4.73
	c-0.05-0.63-0.05-1.27-0.05-1.91c-0.03-13-0.05-26-0.09-39c0-0.88,0.24-2.12-1.03-2.17c-1.38-0.05-1.17,1.22-1.17,2.15
	c0,13.24-0.02,26.48,0.01,39.72c0,1.89-0.38,3.55-1.91,4.77c-1.53,1.22-3.22,1.51-5.03,0.78c-1.87-0.75-2.89-2.17-3.11-4.16
	c-0.08-0.67-0.07-1.35-0.07-2.03C603.76,162.83,603.76,151.5,603.76,140.17z"/>
<path class="st2" d="M606.4,77.65c0.03-4.69,3.93-8.55,8.61-8.54c4.65,0.02,8.58,3.95,8.58,8.59c0,4.7-4.01,8.66-8.7,8.6
	C610.2,86.24,606.37,82.34,606.4,77.65z"/>
<path class="st2" d="M664.55,140.17c0-11.69,0-23.38,0-35.07c0-0.91,0.13-2.08-1.14-2.1c-1.31-0.03-1.15,1.17-1.15,2.06
	c-0.01,7.83,0,15.66,0,23.5c0,1.6-0.22,3.11-1.73,4.07c-1.28,0.81-2.61,0.92-3.97,0.26c-1.41-0.68-2.2-1.83-2.21-3.41
	c-0.01-9.86-0.11-19.72,0.04-29.58c0.1-6.32,5.27-11.2,11.58-11.26c6.48-0.05,12.96-0.05,19.44,0c6.42,0.05,11.7,5.04,11.81,11.5
	c0.16,9.66,0.08,19.32,0.04,28.98c-0.01,2.61-1.68,4.22-4.06,4.16c-2.31-0.06-3.79-1.69-3.79-4.28c-0.01-7.95-0.01-15.9-0.01-23.86
	c0-0.32,0.11-0.71-0.03-0.94c-0.29-0.45-0.72-0.82-1.1-1.22c-0.37,0.4-0.84,0.74-1.08,1.2c-0.18,0.35-0.05,0.86-0.05,1.29
	c0,22.82,0,45.64,0,68.46c0,0.71-0.03,1.43-0.1,2.14c-0.26,2.79-2.34,4.66-5.1,4.63c-2.59-0.03-4.73-2.08-4.94-4.73
	c-0.05-0.63-0.05-1.27-0.05-1.91c-0.03-13-0.05-26-0.09-39c0-0.88,0.24-2.12-1.03-2.17c-1.38-0.05-1.17,1.22-1.17,2.15
	c0,13.24-0.02,26.48,0.01,39.72c0,1.89-0.38,3.55-1.91,4.77c-1.53,1.22-3.22,1.51-5.03,0.78c-1.87-0.75-2.89-2.17-3.11-4.16
	c-0.08-0.67-0.07-1.35-0.07-2.03C664.55,162.83,664.55,151.5,664.55,140.17z"/>
<path class="st2" d="M667.19,77.65c0.03-4.69,3.93-8.55,8.61-8.54c4.65,0.02,8.58,3.95,8.58,8.59c0,4.7-4.01,8.66-8.7,8.6
	C670.99,86.24,667.16,82.34,667.19,77.65z"/>
<path class="st2" d="M125.17,270.77c0-11.69,0-23.38,0-35.07c0-0.91,0.13-2.08-1.14-2.1c-1.31-0.03-1.15,1.17-1.15,2.06
	c-0.01,7.83,0,15.66,0,23.5c0,1.6-0.22,3.11-1.73,4.07c-1.28,0.81-2.61,0.92-3.97,0.26c-1.41-0.68-2.2-1.83-2.21-3.41
	c-0.01-9.86-0.11-19.72,0.04-29.58c0.1-6.32,5.27-11.2,11.58-11.26c6.48-0.05,12.96-0.05,19.44,0c6.42,0.05,11.7,5.04,11.81,11.5
	c0.16,9.66,0.08,19.32,0.04,28.98c-0.01,2.61-1.68,4.22-4.06,4.16c-2.31-0.06-3.79-1.69-3.79-4.28c-0.01-7.95-0.01-15.9-0.01-23.86
	c0-0.32,0.11-0.71-0.03-0.94c-0.29-0.45-0.72-0.82-1.1-1.22c-0.37,0.4-0.84,0.74-1.08,1.2c-0.18,0.35-0.05,0.86-0.05,1.29
	c0,22.82,0,45.64,0,68.46c0,0.71-0.03,1.43-0.1,2.14c-0.26,2.79-2.34,4.66-5.1,4.63c-2.59-0.03-4.73-2.08-4.94-4.73
	c-0.05-0.63-0.05-1.27-0.05-1.91c-0.03-13-0.05-26-0.09-39c0-0.88,0.24-2.12-1.03-2.17c-1.38-0.05-1.17,1.22-1.17,2.15
	c0,13.24-0.02,26.48,0.01,39.72c0,1.89-0.38,3.55-1.91,4.77c-1.53,1.22-3.22,1.51-5.03,0.78c-1.87-0.75-2.89-2.17-3.11-4.16
	c-0.08-0.67-0.07-1.35-0.07-2.03C125.17,293.43,125.17,282.1,125.17,270.77z"/>
<path class="st2" d="M127.81,208.25c0.03-4.69,3.93-8.55,8.61-8.54c4.65,0.02,8.58,3.95,8.58,8.59c0,4.7-4.01,8.66-8.7,8.6
	C131.61,216.84,127.78,212.94,127.81,208.25z"/>
<path class="st2" d="M184.74,270.77c0-11.69,0-23.38,0-35.07c0-0.91,0.13-2.08-1.14-2.1c-1.31-0.03-1.15,1.17-1.15,2.06
	c-0.01,7.83,0,15.66,0,23.5c0,1.6-0.22,3.11-1.73,4.07c-1.28,0.81-2.61,0.92-3.97,0.26c-1.41-0.68-2.2-1.83-2.21-3.41
	c-0.01-9.86-0.11-19.72,0.04-29.58c0.1-6.32,5.27-11.2,11.58-11.26c6.48-0.05,12.96-0.05,19.44,0c6.42,0.05,11.7,5.04,11.81,11.5
	c0.16,9.66,0.08,19.32,0.04,28.98c-0.01,2.61-1.68,4.22-4.06,4.16c-2.31-0.06-3.79-1.69-3.79-4.28c-0.01-7.95-0.01-15.9-0.01-23.86
	c0-0.32,0.11-0.71-0.03-0.94c-0.29-0.45-0.72-0.82-1.1-1.22c-0.37,0.4-0.84,0.74-1.08,1.2c-0.18,0.35-0.05,0.86-0.05,1.29
	c0,22.82,0,45.64,0,68.46c0,0.71-0.03,1.43-0.1,2.14c-0.26,2.79-2.34,4.66-5.1,4.63c-2.59-0.03-4.73-2.08-4.94-4.73
	c-0.05-0.63-0.05-1.27-0.05-1.91c-0.03-13-0.05-26-0.09-39c0-0.88,0.24-2.12-1.03-2.17c-1.38-0.05-1.17,1.22-1.17,2.15
	c0,13.24-0.02,26.48,0.01,39.72c0,1.89-0.38,3.55-1.91,4.77c-1.53,1.22-3.22,1.51-5.03,0.78c-1.87-0.75-2.89-2.17-3.11-4.16
	c-0.08-0.67-0.07-1.35-0.07-2.03C184.74,293.43,184.74,282.1,184.74,270.77z"/>
<path class="st2" d="M187.38,208.25c0.03-4.69,3.93-8.55,8.61-8.54c4.65,0.02,8.58,3.95,8.58,8.59c0,4.7-4.01,8.66-8.7,8.6
	C191.18,216.84,187.35,212.94,187.38,208.25z"/>
<path class="st2" d="M244.25,270.77c0-11.69,0-23.38,0-35.07c0-0.91,0.13-2.08-1.14-2.1c-1.31-0.03-1.15,1.17-1.15,2.06
	c-0.01,7.83,0,15.66,0,23.5c0,1.6-0.22,3.11-1.73,4.07c-1.28,0.81-2.61,0.92-3.97,0.26c-1.41-0.68-2.2-1.83-2.21-3.41
	c-0.01-9.86-0.11-19.72,0.04-29.58c0.1-6.32,5.27-11.2,11.58-11.26c6.48-0.05,12.96-0.05,19.44,0c6.42,0.05,11.7,5.04,11.81,11.5
	c0.16,9.66,0.08,19.32,0.04,28.98c-0.01,2.61-1.68,4.22-4.06,4.16c-2.31-0.06-3.79-1.69-3.79-4.28c-0.01-7.95-0.01-15.9-0.01-23.86
	c0-0.32,0.11-0.71-0.03-0.94c-0.29-0.45-0.72-0.82-1.1-1.22c-0.37,0.4-0.84,0.74-1.08,1.2c-0.18,0.35-0.05,0.86-0.05,1.29
	c0,22.82,0,45.64,0,68.46c0,0.71-0.03,1.43-0.1,2.14c-0.26,2.79-2.34,4.66-5.1,4.63c-2.59-0.03-4.73-2.08-4.94-4.73
	c-0.05-0.63-0.05-1.27-0.05-1.91c-0.03-13-0.05-26-0.09-39c0-0.88,0.24-2.12-1.03-2.17c-1.38-0.05-1.17,1.22-1.17,2.15
	c0,13.24-0.02,26.48,0.01,39.72c0,1.89-0.38,3.55-1.91,4.77c-1.53,1.22-3.22,1.51-5.03,0.78c-1.87-0.75-2.89-2.17-3.11-4.16
	c-0.08-0.67-0.07-1.35-0.07-2.03C244.25,293.43,244.25,282.1,244.25,270.77z"/>
<path class="st2" d="M246.89,208.25c0.03-4.69,3.93-8.55,8.61-8.54c4.65,0.02,8.58,3.95,8.58,8.59c0,4.7-4.01,8.66-8.7,8.6
	C250.69,216.84,246.86,212.94,246.89,208.25z"/>
<path class="st2" d="M303.51,270.77c0-11.69,0-23.38,0-35.07c0-0.91,0.13-2.08-1.14-2.1c-1.31-0.03-1.15,1.17-1.15,2.06
	c-0.01,7.83,0,15.66,0,23.5c0,1.6-0.22,3.11-1.73,4.07c-1.28,0.81-2.61,0.92-3.97,0.26c-1.41-0.68-2.2-1.83-2.21-3.41
	c-0.01-9.86-0.11-19.72,0.04-29.58c0.1-6.32,5.27-11.2,11.58-11.26c6.48-0.05,12.96-0.05,19.44,0c6.42,0.05,11.7,5.04,11.81,11.5
	c0.16,9.66,0.08,19.32,0.04,28.98c-0.01,2.61-1.68,4.22-4.06,4.16c-2.31-0.06-3.79-1.69-3.79-4.28c-0.01-7.95-0.01-15.9-0.01-23.86
	c0-0.32,0.11-0.71-0.03-0.94c-0.29-0.45-0.72-0.82-1.1-1.22c-0.37,0.4-0.84,0.74-1.08,1.2c-0.18,0.35-0.05,0.86-0.05,1.29
	c0,22.82,0,45.64,0,68.46c0,0.71-0.03,1.43-0.1,2.14c-0.26,2.79-2.34,4.66-5.1,4.63c-2.59-0.03-4.73-2.08-4.94-4.73
	c-0.05-0.63-0.05-1.27-0.05-1.91c-0.03-13-0.05-26-0.09-39c0-0.88,0.24-2.12-1.03-2.17c-1.38-0.05-1.17,1.22-1.17,2.15
	c0,13.24-0.02,26.48,0.01,39.72c0,1.89-0.38,3.55-1.91,4.77c-1.53,1.22-3.22,1.51-5.03,0.78c-1.87-0.75-2.89-2.17-3.11-4.16
	c-0.08-0.67-0.07-1.35-0.07-2.03C303.51,293.43,303.51,282.1,303.51,270.77z"/>
<path class="st2" d="M306.15,208.25c0.03-4.69,3.93-8.55,8.61-8.54c4.65,0.02,8.58,3.95,8.58,8.59c0,4.7-4.01,8.66-8.7,8.6
	C309.95,216.84,306.12,212.94,306.15,208.25z"/>
<path class="st2" d="M363.08,270.77c0-11.69,0-23.38,0-35.07c0-0.91,0.13-2.08-1.14-2.1c-1.31-0.03-1.15,1.17-1.15,2.06
	c-0.01,7.83,0,15.66,0,23.5c0,1.6-0.22,3.11-1.73,4.07c-1.28,0.81-2.61,0.92-3.97,0.26c-1.41-0.68-2.2-1.83-2.21-3.41
	c-0.01-9.86-0.11-19.72,0.04-29.58c0.1-6.32,5.27-11.2,11.58-11.26c6.48-0.05,12.96-0.05,19.44,0c6.42,0.05,11.7,5.04,11.81,11.5
	c0.16,9.66,0.08,19.32,0.04,28.98c-0.01,2.61-1.68,4.22-4.06,4.16c-2.31-0.06-3.79-1.69-3.79-4.28c-0.01-7.95-0.01-15.9-0.01-23.86
	c0-0.32,0.11-0.71-0.03-0.94c-0.29-0.45-0.72-0.82-1.1-1.22c-0.37,0.4-0.84,0.74-1.08,1.2c-0.18,0.35-0.05,0.86-0.05,1.29
	c0,22.82,0,45.64,0,68.46c0,0.71-0.03,1.43-0.1,2.14c-0.26,2.79-2.34,4.66-5.1,4.63c-2.59-0.03-4.73-2.08-4.94-4.73
	c-0.05-0.63-0.05-1.27-0.05-1.91c-0.03-13-0.05-26-0.09-39c0-0.88,0.24-2.12-1.03-2.17c-1.38-0.05-1.17,1.22-1.17,2.15
	c0,13.24-0.02,26.48,0.01,39.72c0,1.89-0.38,3.55-1.91,4.77c-1.53,1.22-3.22,1.51-5.03,0.78c-1.87-0.75-2.89-2.17-3.11-4.16
	c-0.08-0.67-0.07-1.35-0.07-2.03C363.08,293.43,363.08,282.1,363.08,270.77z"/>
<path class="st2" d="M365.72,208.25c0.03-4.69,3.93-8.55,8.61-8.54c4.65,0.02,8.58,3.95,8.58,8.59c0,4.7-4.01,8.66-8.7,8.6
	C369.52,216.84,365.69,212.94,365.72,208.25z"/>
<path class="st2" d="M422.6,270.77c0-11.69,0-23.38,0-35.07c0-0.91,0.13-2.08-1.14-2.1c-1.31-0.03-1.15,1.17-1.15,2.06
	c-0.01,7.83,0,15.66,0,23.5c0,1.6-0.22,3.11-1.73,4.07c-1.28,0.81-2.61,0.92-3.97,0.26c-1.41-0.68-2.2-1.83-2.21-3.41
	c-0.01-9.86-0.11-19.72,0.04-29.58c0.1-6.32,5.27-11.2,11.58-11.26c6.48-0.05,12.96-0.05,19.44,0c6.42,0.05,11.7,5.04,11.81,11.5
	c0.16,9.66,0.08,19.32,0.04,28.98c-0.01,2.61-1.68,4.22-4.06,4.16c-2.31-0.06-3.79-1.69-3.79-4.28c-0.01-7.95-0.01-15.9-0.01-23.86
	c0-0.32,0.11-0.71-0.03-0.94c-0.29-0.45-0.72-0.82-1.1-1.22c-0.37,0.4-0.84,0.74-1.08,1.2c-0.18,0.35-0.05,0.86-0.05,1.29
	c0,22.82,0,45.64,0,68.46c0,0.71-0.03,1.43-0.1,2.14c-0.26,2.79-2.34,4.66-5.1,4.63c-2.59-0.03-4.73-2.08-4.94-4.73
	c-0.05-0.63-0.05-1.27-0.05-1.91c-0.03-13-0.05-26-0.09-39c0-0.88,0.24-2.12-1.03-2.17c-1.38-0.05-1.17,1.22-1.17,2.15
	c0,13.24-0.02,26.48,0.01,39.72c0,1.89-0.38,3.55-1.91,4.77c-1.53,1.22-3.22,1.51-5.03,0.78c-1.87-0.75-2.89-2.17-3.11-4.16
	c-0.08-0.67-0.07-1.35-0.07-2.03C422.6,293.43,422.6,282.1,422.6,270.77z"/>
<path class="st2" d="M425.24,208.25c0.03-4.69,3.93-8.55,8.61-8.54c4.65,0.02,8.58,3.95,8.58,8.59c0,4.7-4.01,8.66-8.7,8.6
	C429.04,216.84,425.21,212.94,425.24,208.25z"/>
<path class="st2" d="M484.67,270.77c0-11.69,0-23.38,0-35.07c0-0.91,0.13-2.08-1.14-2.1c-1.31-0.03-1.15,1.17-1.15,2.06
	c-0.01,7.83,0,15.66,0,23.5c0,1.6-0.22,3.11-1.73,4.07c-1.28,0.81-2.61,0.92-3.97,0.26c-1.41-0.68-2.2-1.83-2.21-3.41
	c-0.01-9.86-0.11-19.72,0.04-29.58c0.1-6.32,5.27-11.2,11.58-11.26c6.48-0.05,12.96-0.05,19.44,0c6.42,0.05,11.7,5.04,11.81,11.5
	c0.16,9.66,0.08,19.32,0.04,28.98c-0.01,2.61-1.68,4.22-4.06,4.16c-2.31-0.06-3.79-1.69-3.79-4.28c-0.01-7.95-0.01-15.9-0.01-23.86
	c0-0.32,0.11-0.71-0.03-0.94c-0.29-0.45-0.72-0.82-1.1-1.22c-0.37,0.4-0.84,0.74-1.08,1.2c-0.18,0.35-0.05,0.86-0.05,1.29
	c0,22.82,0,45.64,0,68.46c0,0.71-0.03,1.43-0.1,2.14c-0.26,2.79-2.34,4.66-5.1,4.63c-2.59-0.03-4.73-2.08-4.94-4.73
	c-0.05-0.63-0.05-1.27-0.05-1.91c-0.03-13-0.05-26-0.09-39c0-0.88,0.24-2.12-1.03-2.17c-1.38-0.05-1.17,1.22-1.17,2.15
	c0,13.24-0.02,26.48,0.01,39.72c0,1.89-0.38,3.55-1.91,4.77c-1.53,1.22-3.22,1.51-5.03,0.78c-1.87-0.75-2.89-2.17-3.11-4.16
	c-0.08-0.67-0.07-1.35-0.07-2.03C484.67,293.43,484.67,282.1,484.67,270.77z"/>
<path class="st2" d="M487.31,208.25c0.03-4.69,3.93-8.55,8.61-8.54c4.65,0.02,8.58,3.95,8.58,8.59c0,4.7-4.01,8.66-8.7,8.6
	C491.11,216.84,487.28,212.94,487.31,208.25z"/>
<path class="st2" d="M544.25,270.77c0-11.69,0-23.38,0-35.07c0-0.91,0.13-2.08-1.14-2.1c-1.31-0.03-1.15,1.17-1.15,2.06
	c-0.01,7.83,0,15.66,0,23.5c0,1.6-0.22,3.11-1.73,4.07c-1.28,0.81-2.61,0.92-3.97,0.26c-1.41-0.68-2.2-1.83-2.21-3.41
	c-0.01-9.86-0.11-19.72,0.04-29.58c0.1-6.32,5.27-11.2,11.58-11.26c6.48-0.05,12.96-0.05,19.44,0c6.42,0.05,11.7,5.04,11.81,11.5
	c0.16,9.66,0.08,19.32,0.04,28.98c-0.01,2.61-1.68,4.22-4.06,4.16c-2.31-0.06-3.79-1.69-3.79-4.28c-0.01-7.95-0.01-15.9-0.01-23.86
	c0-0.32,0.11-0.71-0.03-0.94c-0.29-0.45-0.72-0.82-1.1-1.22c-0.37,0.4-0.84,0.74-1.08,1.2c-0.18,0.35-0.05,0.86-0.05,1.29
	c0,22.82,0,45.64,0,68.46c0,0.71-0.03,1.43-0.1,2.14c-0.26,2.79-2.34,4.66-5.1,4.63c-2.59-0.03-4.73-2.08-4.94-4.73
	c-0.05-0.63-0.05-1.27-0.05-1.91c-0.03-13-0.05-26-0.09-39c0-0.88,0.24-2.12-1.03-2.17c-1.38-0.05-1.17,1.22-1.17,2.15
	c0,13.24-0.02,26.48,0.01,39.72c0,1.89-0.38,3.55-1.91,4.77c-1.53,1.22-3.22,1.51-5.03,0.78c-1.87-0.75-2.89-2.17-3.11-4.16
	c-0.08-0.67-0.07-1.35-0.07-2.03C544.24,293.43,544.25,282.1,544.25,270.77z"/>
<path class="st2" d="M546.89,208.25c0.03-4.69,3.93-8.55,8.61-8.54c4.65,0.02,8.58,3.95,8.58,8.59c0,4.7-4.01,8.66-8.7,8.6
	C550.69,216.84,546.85,212.94,546.89,208.25z"/>
<path class="st2" d="M603.76,270.77c0-11.69,0-23.38,0-35.07c0-0.91,0.13-2.08-1.14-2.1c-1.31-0.03-1.15,1.17-1.15,2.06
	c-0.01,7.83,0,15.66,0,23.5c0,1.6-0.22,3.11-1.73,4.07c-1.28,0.81-2.61,0.92-3.97,0.26c-1.41-0.68-2.2-1.83-2.21-3.41
	c-0.01-9.86-0.11-19.72,0.04-29.58c0.1-6.32,5.27-11.2,11.58-11.26c6.48-0.05,12.96-0.05,19.44,0c6.42,0.05,11.7,5.04,11.81,11.5
	c0.16,9.66,0.08,19.32,0.04,28.98c-0.01,2.61-1.68,4.22-4.06,4.16c-2.31-0.06-3.79-1.69-3.79-4.28c-0.01-7.95-0.01-15.9-0.01-23.86
	c0-0.32,0.11-0.71-0.03-0.94c-0.29-0.45-0.72-0.82-1.1-1.22c-0.37,0.4-0.84,0.74-1.08,1.2c-0.18,0.35-0.05,0.86-0.05,1.29
	c0,22.82,0,45.64,0,68.46c0,0.71-0.03,1.43-0.1,2.14c-0.26,2.79-2.34,4.66-5.1,4.63c-2.59-0.03-4.73-2.08-4.94-4.73
	c-0.05-0.63-0.05-1.27-0.05-1.91c-0.03-13-0.05-26-0.09-39c0-0.88,0.24-2.12-1.03-2.17c-1.38-0.05-1.17,1.22-1.17,2.15
	c0,13.24-0.02,26.48,0.01,39.72c0,1.89-0.38,3.55-1.91,4.77c-1.53,1.22-3.22,1.51-5.03,0.78c-1.87-0.75-2.89-2.17-3.11-4.16
	c-0.08-0.67-0.07-1.35-0.07-2.03C603.76,293.43,603.76,282.1,603.76,270.77z"/>
<path class="st2" d="M606.4,208.25c0.03-4.69,3.93-8.55,8.61-8.54c4.65,0.02,8.58,3.95,8.58,8.59c0,4.7-4.01,8.66-8.7,8.6
	C610.2,216.84,606.37,212.94,606.4,208.25z"/>
<path class="st2" d="M664.55,270.77c0-11.69,0-23.38,0-35.07c0-0.91,0.13-2.08-1.14-2.1c-1.31-0.03-1.15,1.17-1.15,2.06
	c-0.01,7.83,0,15.66,0,23.5c0,1.6-0.22,3.11-1.73,4.07c-1.28,0.81-2.61,0.92-3.97,0.26c-1.41-0.68-2.2-1.83-2.21-3.41
	c-0.01-9.86-0.11-19.72,0.04-29.58c0.1-6.32,5.27-11.2,11.58-11.26c6.48-0.05,12.96-0.05,19.44,0c6.42,0.05,11.7,5.04,11.81,11.5
	c0.16,9.66,0.08,19.32,0.04,28.98c-0.01,2.61-1.68,4.22-4.06,4.16c-2.31-0.06-3.79-1.69-3.79-4.28c-0.01-7.95-0.01-15.9-0.01-23.86
	c0-0.32,0.11-0.71-0.03-0.94c-0.29-0.45-0.72-0.82-1.1-1.22c-0.37,0.4-0.84,0.74-1.08,1.2c-0.18,0.35-0.05,0.86-0.05,1.29
	c0,22.82,0,45.64,0,68.46c0,0.71-0.03,1.43-0.1,2.14c-0.26,2.79-2.34,4.66-5.1,4.63c-2.59-0.03-4.73-2.08-4.94-4.73
	c-0.05-0.63-0.05-1.27-0.05-1.91c-0.03-13-0.05-26-0.09-39c0-0.88,0.24-2.12-1.03-2.17c-1.38-0.05-1.17,1.22-1.17,2.15
	c0,13.24-0.02,26.48,0.01,39.72c0,1.89-0.38,3.55-1.91,4.77c-1.53,1.22-3.22,1.51-5.03,0.78c-1.87-0.75-2.89-2.17-3.11-4.16
	c-0.08-0.67-0.07-1.35-0.07-2.03C664.55,293.43,664.55,282.1,664.55,270.77z"/>
<path class="st2" d="M667.19,208.25c0.03-4.69,3.93-8.55,8.61-8.54c4.65,0.02,8.58,3.95,8.58,8.59c0,4.7-4.01,8.66-8.7,8.6
	C670.99,216.84,667.16,212.94,667.19,208.25z"/>
<path class="st3" d="M124.72,399.95c0-11.69,0-23.38,0-35.07c0-0.91,0.13-2.08-1.14-2.1c-1.31-0.03-1.15,1.17-1.15,2.06
	c-0.01,7.83,0,15.66,0,23.5c0,1.6-0.22,3.11-1.73,4.07c-1.28,0.81-2.61,0.92-3.97,0.26c-1.41-0.68-2.2-1.83-2.21-3.41
	c-0.01-9.86-0.11-19.72,0.04-29.58c0.1-6.32,5.27-11.2,11.58-11.26c6.48-0.05,12.96-0.05,19.44,0c6.42,0.05,11.7,5.04,11.81,11.5
	c0.16,9.66,0.08,19.32,0.04,28.98c-0.01,2.61-1.68,4.22-4.06,4.16c-2.31-0.06-3.79-1.69-3.79-4.28c-0.01-7.95-0.01-15.9-0.01-23.86
	c0-0.32,0.11-0.71-0.03-0.94c-0.29-0.45-0.72-0.82-1.1-1.22c-0.37,0.4-0.84,0.74-1.08,1.2c-0.18,0.35-0.05,0.86-0.05,1.29
	c0,22.82,0,45.64,0,68.46c0,0.71-0.03,1.43-0.1,2.14c-0.26,2.79-2.34,4.66-5.1,4.63c-2.59-0.03-4.73-2.08-4.94-4.73
	c-0.05-0.63-0.05-1.27-0.05-1.91c-0.03-13-0.05-26-0.09-39c0-0.88,0.24-2.12-1.03-2.17c-1.38-0.05-1.17,1.22-1.17,2.15
	c0,13.24-0.02,26.48,0.01,39.72c0,1.89-0.38,3.55-1.91,4.77c-1.53,1.22-3.22,1.51-5.03,0.78c-1.87-0.75-2.89-2.17-3.11-4.16
	c-0.08-0.67-0.07-1.35-0.07-2.03C124.71,422.61,124.72,411.28,124.72,399.95z"/>
<path class="st3" d="M127.36,337.43c0.03-4.69,3.93-8.55,8.61-8.54c4.65,0.02,8.58,3.95,8.58,8.59c0,4.7-4.01,8.66-8.7,8.6
	C131.15,346.03,127.32,342.12,127.36,337.43z"/>
<path class="st3" d="M184.29,399.95c0-11.69,0-23.38,0-35.07c0-0.91,0.13-2.08-1.14-2.1c-1.31-0.03-1.15,1.17-1.15,2.06
	c-0.01,7.83,0,15.66,0,23.5c0,1.6-0.22,3.11-1.73,4.07c-1.28,0.81-2.61,0.92-3.97,0.26c-1.41-0.68-2.2-1.83-2.21-3.41
	c-0.01-9.86-0.11-19.72,0.04-29.58c0.1-6.32,5.27-11.2,11.58-11.26c6.48-0.05,12.96-0.05,19.44,0c6.42,0.05,11.7,5.04,11.81,11.5
	c0.16,9.66,0.08,19.32,0.04,28.98c-0.01,2.61-1.68,4.22-4.06,4.16c-2.31-0.06-3.79-1.69-3.79-4.28c-0.01-7.95-0.01-15.9-0.01-23.86
	c0-0.32,0.11-0.71-0.03-0.94c-0.29-0.45-0.72-0.82-1.1-1.22c-0.37,0.4-0.84,0.74-1.08,1.2c-0.18,0.35-0.05,0.86-0.05,1.29
	c0,22.82,0,45.64,0,68.46c0,0.71-0.03,1.43-0.1,2.14c-0.26,2.79-2.34,4.66-5.1,4.63c-2.59-0.03-4.73-2.08-4.94-4.73
	c-0.05-0.63-0.05-1.27-0.05-1.91c-0.03-13-0.05-26-0.09-39c0-0.88,0.24-2.12-1.03-2.17c-1.38-0.05-1.17,1.22-1.17,2.15
	c0,13.24-0.02,26.48,0.01,39.72c0,1.89-0.38,3.55-1.91,4.77c-1.53,1.22-3.22,1.51-5.03,0.78c-1.87-0.75-2.89-2.17-3.11-4.16
	c-0.08-0.67-0.07-1.35-0.07-2.03C184.29,422.61,184.29,411.28,184.29,399.95z"/>
<path class="st3" d="M186.93,337.43c0.03-4.69,3.93-8.55,8.61-8.54c4.65,0.02,8.58,3.95,8.58,8.59c0,4.7-4.01,8.66-8.7,8.6
	C190.73,346.03,186.9,342.12,186.93,337.43z"/>
<path class="st3" d="M243.8,399.95c0-11.69,0-23.38,0-35.07c0-0.91,0.13-2.08-1.14-2.1c-1.31-0.03-1.15,1.17-1.15,2.06
	c-0.01,7.83,0,15.66,0,23.5c0,1.6-0.22,3.11-1.73,4.07c-1.28,0.81-2.61,0.92-3.97,0.26c-1.41-0.68-2.2-1.83-2.21-3.41
	c-0.01-9.86-0.11-19.72,0.04-29.58c0.1-6.32,5.27-11.2,11.58-11.26c6.48-0.05,12.96-0.05,19.44,0c6.42,0.05,11.7,5.04,11.81,11.5
	c0.16,9.66,0.08,19.32,0.04,28.98c-0.01,2.61-1.68,4.22-4.06,4.16c-2.31-0.06-3.79-1.69-3.79-4.28c-0.01-7.95-0.01-15.9-0.01-23.86
	c0-0.32,0.11-0.71-0.03-0.94c-0.29-0.45-0.72-0.82-1.1-1.22c-0.37,0.4-0.84,0.74-1.08,1.2c-0.18,0.35-0.05,0.86-0.05,1.29
	c0,22.82,0,45.64,0,68.46c0,0.71-0.03,1.43-0.1,2.14c-0.26,2.79-2.34,4.66-5.1,4.63c-2.59-0.03-4.73-2.08-4.94-4.73
	c-0.05-0.63-0.05-1.27-0.05-1.91c-0.03-13-0.05-26-0.09-39c0-0.88,0.24-2.12-1.03-2.17c-1.38-0.05-1.17,1.22-1.17,2.15
	c0,13.24-0.02,26.48,0.01,39.72c0,1.89-0.38,3.55-1.91,4.77c-1.53,1.22-3.22,1.51-5.03,0.78c-1.87-0.75-2.89-2.17-3.11-4.16
	c-0.08-0.67-0.07-1.35-0.07-2.03C243.8,422.61,243.8,411.28,243.8,399.95z"/>
<path class="st3" d="M246.44,337.43c0.03-4.69,3.93-8.55,8.61-8.54c4.65,0.02,8.58,3.95,8.58,8.59c0,4.7-4.01,8.66-8.7,8.6
	C250.24,346.03,246.41,342.12,246.44,337.43z"/>
<path class="st3" d="M303.06,399.95c0-11.69,0-23.38,0-35.07c0-0.91,0.13-2.08-1.14-2.1c-1.31-0.03-1.15,1.17-1.15,2.06
	c-0.01,7.83,0,15.66,0,23.5c0,1.6-0.22,3.11-1.73,4.07c-1.28,0.81-2.61,0.92-3.97,0.26c-1.41-0.68-2.2-1.83-2.21-3.41
	c-0.01-9.86-0.11-19.72,0.04-29.58c0.1-6.32,5.27-11.2,11.58-11.26c6.48-0.05,12.96-0.05,19.44,0c6.42,0.05,11.7,5.04,11.81,11.5
	c0.16,9.66,0.08,19.32,0.04,28.98c-0.01,2.61-1.68,4.22-4.06,4.16c-2.31-0.06-3.79-1.69-3.79-4.28c-0.01-7.95-0.01-15.9-0.01-23.86
	c0-0.32,0.11-0.71-0.03-0.94c-0.29-0.45-0.72-0.82-1.1-1.22c-0.37,0.4-0.84,0.74-1.08,1.2c-0.18,0.35-0.05,0.86-0.05,1.29
	c0,22.82,0,45.64,0,68.46c0,0.71-0.03,1.43-0.1,2.14c-0.26,2.79-2.34,4.66-5.1,4.63c-2.59-0.03-4.73-2.08-4.94-4.73
	c-0.05-0.63-0.05-1.27-0.05-1.91c-0.03-13-0.05-26-0.09-39c0-0.88,0.24-2.12-1.03-2.17c-1.38-0.05-1.17,1.22-1.17,2.15
	c0,13.24-0.02,26.48,0.01,39.72c0,1.89-0.38,3.55-1.91,4.77c-1.53,1.22-3.22,1.51-5.03,0.78c-1.87-0.75-2.89-2.17-3.11-4.16
	c-0.08-0.67-0.07-1.35-0.07-2.03C303.06,422.61,303.06,411.28,303.06,399.95z"/>
<path class="st3" d="M305.7,337.43c0.03-4.69,3.93-8.55,8.61-8.54c4.65,0.02,8.58,3.95,8.58,8.59c0,4.7-4.01,8.66-8.7,8.6
	C309.5,346.03,305.67,342.12,305.7,337.43z"/>
<path class="st4" d="M362.63,399.95c0-11.69,0-23.38,0-35.07c0-0.91,0.13-2.08-1.14-2.1c-1.31-0.03-1.15,1.17-1.15,2.06
	c-0.01,7.83,0,15.66,0,23.5c0,1.6-0.22,3.11-1.73,4.07c-1.28,0.81-2.61,0.92-3.97,0.26c-1.41-0.68-2.2-1.83-2.21-3.41
	c-0.01-9.86-0.11-19.72,0.04-29.58c0.1-6.32,5.27-11.2,11.58-11.26c6.48-0.05,12.96-0.05,19.44,0c6.42,0.05,11.7,5.04,11.81,11.5
	c0.16,9.66,0.08,19.32,0.04,28.98c-0.01,2.61-1.68,4.22-4.06,4.16c-2.31-0.06-3.79-1.69-3.79-4.28c-0.01-7.95-0.01-15.9-0.01-23.86
	c0-0.32,0.11-0.71-0.03-0.94c-0.29-0.45-0.72-0.82-1.1-1.22c-0.37,0.4-0.84,0.74-1.08,1.2c-0.18,0.35-0.05,0.86-0.05,1.29
	c0,22.82,0,45.64,0,68.46c0,0.71-0.03,1.43-0.1,2.14c-0.26,2.79-2.34,4.66-5.1,4.63c-2.59-0.03-4.73-2.08-4.94-4.73
	c-0.05-0.63-0.05-1.27-0.05-1.91c-0.03-13-0.05-26-0.09-39c0-0.88,0.24-2.12-1.03-2.17c-1.38-0.05-1.17,1.22-1.17,2.15
	c0,13.24-0.02,26.48,0.01,39.72c0,1.89-0.38,3.55-1.91,4.77c-1.53,1.22-3.22,1.51-5.03,0.78c-1.87-0.75-2.89-2.17-3.11-4.16
	c-0.08-0.67-0.07-1.35-0.07-2.03C362.63,422.61,362.63,411.28,362.63,399.95z"/>
<path class="st4" d="M365.27,337.43c0.03-4.69,3.93-8.55,8.61-8.54c4.65,0.02,8.58,3.95,8.58,8.59c0,4.7-4.01,8.66-8.7,8.6
	C369.07,346.03,365.24,342.12,365.27,337.43z"/>
<path class="st4" d="M422.14,399.95c0-11.69,0-23.38,0-35.07c0-0.91,0.13-2.08-1.14-2.1c-1.31-0.03-1.15,1.17-1.15,2.06
	c-0.01,7.83,0,15.66,0,23.5c0,1.6-0.22,3.11-1.73,4.07c-1.28,0.81-2.61,0.92-3.97,0.26c-1.41-0.68-2.2-1.83-2.21-3.41
	c-0.01-9.86-0.11-19.72,0.04-29.58c0.1-6.32,5.27-11.2,11.58-11.26c6.48-0.05,12.96-0.05,19.44,0c6.42,0.05,11.7,5.04,11.81,11.5
	c0.16,9.66,0.08,19.32,0.04,28.98c-0.01,2.61-1.68,4.22-4.06,4.16c-2.31-0.06-3.79-1.69-3.79-4.28c-0.01-7.95-0.01-15.9-0.01-23.86
	c0-0.32,0.11-0.71-0.03-0.94c-0.29-0.45-0.72-0.82-1.1-1.22c-0.37,0.4-0.84,0.74-1.08,1.2c-0.18,0.35-0.05,0.86-0.05,1.29
	c0,22.82,0,45.64,0,68.46c0,0.71-0.03,1.43-0.1,2.14c-0.26,2.79-2.34,4.66-5.1,4.63c-2.59-0.03-4.73-2.08-4.94-4.73
	c-0.05-0.63-0.05-1.27-0.05-1.91c-0.03-13-0.05-26-0.09-39c0-0.88,0.24-2.12-1.03-2.17c-1.38-0.05-1.17,1.22-1.17,2.15
	c0,13.24-0.02,26.48,0.01,39.72c0,1.89-0.38,3.55-1.91,4.77c-1.53,1.22-3.22,1.51-5.03,0.78c-1.87-0.75-2.89-2.17-3.11-4.16
	c-0.08-0.67-0.07-1.35-0.07-2.03C422.14,422.61,422.14,411.28,422.14,399.95z"/>
<path class="st4" d="M424.78,337.43c0.03-4.69,3.93-8.55,8.61-8.54c4.65,0.02,8.58,3.95,8.58,8.59c0,4.7-4.01,8.66-8.7,8.6
	C428.58,346.03,424.75,342.12,424.78,337.43z"/>
<path class="st4" d="M484.22,399.95c0-11.69,0-23.38,0-35.07c0-0.91,0.13-2.08-1.14-2.1c-1.31-0.03-1.15,1.17-1.15,2.06
	c-0.01,7.83,0,15.66,0,23.5c0,1.6-0.22,3.11-1.73,4.07c-1.28,0.81-2.61,0.92-3.97,0.26c-1.41-0.68-2.2-1.83-2.21-3.41
	c-0.01-9.86-0.11-19.72,0.04-29.58c0.1-6.32,5.27-11.2,11.58-11.26c6.48-0.05,12.96-0.05,19.44,0c6.42,0.05,11.7,5.04,11.81,11.5
	c0.16,9.66,0.08,19.32,0.04,28.98c-0.01,2.61-1.68,4.22-4.06,4.16c-2.31-0.06-3.79-1.69-3.79-4.28c-0.01-7.95-0.01-15.9-0.01-23.86
	c0-0.32,0.11-0.71-0.03-0.94c-0.29-0.45-0.72-0.82-1.1-1.22c-0.37,0.4-0.84,0.74-1.08,1.2c-0.18,0.35-0.05,0.86-0.05,1.29
	c0,22.82,0,45.64,0,68.46c0,0.71-0.03,1.43-0.1,2.14c-0.26,2.79-2.34,4.66-5.1,4.63c-2.59-0.03-4.73-2.08-4.94-4.73
	c-0.05-0.63-0.05-1.27-0.05-1.91c-0.03-13-0.05-26-0.09-39c0-0.88,0.24-2.12-1.03-2.17c-1.38-0.05-1.17,1.22-1.17,2.15
	c0,13.24-0.02,26.48,0.01,39.72c0,1.89-0.38,3.55-1.91,4.77c-1.53,1.22-3.22,1.51-5.03,0.78c-1.87-0.75-2.89-2.17-3.11-4.16
	c-0.08-0.67-0.07-1.35-0.07-2.03C484.22,422.61,484.22,411.28,484.22,399.95z"/>
<path class="st4" d="M486.86,337.43c0.03-4.69,3.93-8.55,8.61-8.54c4.65,0.02,8.58,3.95,8.58,8.59c0,4.7-4.01,8.66-8.7,8.6
	C490.66,346.03,486.83,342.12,486.86,337.43z"/>
<path class="st4" d="M543.79,399.95c0-11.69,0-23.38,0-35.07c0-0.91,0.13-2.08-1.14-2.1c-1.31-0.03-1.15,1.17-1.15,2.06
	c-0.01,7.83,0,15.66,0,23.5c0,1.6-0.22,3.11-1.73,4.07c-1.28,0.81-2.61,0.92-3.97,0.26c-1.41-0.68-2.2-1.83-2.21-3.41
	c-0.01-9.86-0.11-19.72,0.04-29.58c0.1-6.32,5.27-11.2,11.58-11.26c6.48-0.05,12.96-0.05,19.44,0c6.42,0.05,11.7,5.04,11.81,11.5
	c0.16,9.66,0.08,19.32,0.04,28.98c-0.01,2.61-1.68,4.22-4.06,4.16c-2.31-0.06-3.79-1.69-3.79-4.28c-0.01-7.95-0.01-15.9-0.01-23.86
	c0-0.32,0.11-0.71-0.03-0.94c-0.29-0.45-0.72-0.82-1.1-1.22c-0.37,0.4-0.84,0.74-1.08,1.2c-0.18,0.35-0.05,0.86-0.05,1.29
	c0,22.82,0,45.64,0,68.46c0,0.71-0.03,1.43-0.1,2.14c-0.26,2.79-2.34,4.66-5.1,4.63c-2.59-0.03-4.73-2.08-4.94-4.73
	c-0.05-0.63-0.05-1.27-0.05-1.91c-0.03-13-0.05-26-0.09-39c0-0.88,0.24-2.12-1.03-2.17c-1.38-0.05-1.17,1.22-1.17,2.15
	c0,13.24-0.02,26.48,0.01,39.72c0,1.89-0.38,3.55-1.91,4.77c-1.53,1.22-3.22,1.51-5.03,0.78c-1.87-0.75-2.89-2.17-3.11-4.16
	c-0.08-0.67-0.07-1.35-0.07-2.03C543.79,422.61,543.79,411.28,543.79,399.95z"/>
<path class="st4" d="M546.43,337.43c0.03-4.69,3.93-8.55,8.61-8.54c4.65,0.02,8.58,3.95,8.58,8.59c0,4.7-4.01,8.66-8.7,8.6
	C550.23,346.03,546.4,342.12,546.43,337.43z"/>
<path class="st4" d="M603.31,399.95c0-11.69,0-23.38,0-35.07c0-0.91,0.13-2.08-1.14-2.1c-1.31-0.03-1.15,1.17-1.15,2.06
	c-0.01,7.83,0,15.66,0,23.5c0,1.6-0.22,3.11-1.73,4.07c-1.28,0.81-2.61,0.92-3.97,0.26c-1.41-0.68-2.2-1.83-2.21-3.41
	c-0.01-9.86-0.11-19.72,0.04-29.58c0.1-6.32,5.27-11.2,11.58-11.26c6.48-0.05,12.96-0.05,19.44,0c6.42,0.05,11.7,5.04,11.81,11.5
	c0.16,9.66,0.08,19.32,0.04,28.98c-0.01,2.61-1.68,4.22-4.06,4.16c-2.31-0.06-3.79-1.69-3.79-4.28c-0.01-7.95-0.01-15.9-0.01-23.86
	c0-0.32,0.11-0.71-0.03-0.94c-0.29-0.45-0.72-0.82-1.1-1.22c-0.37,0.4-0.84,0.74-1.08,1.2c-0.18,0.35-0.05,0.86-0.05,1.29
	c0,22.82,0,45.64,0,68.46c0,0.71-0.03,1.43-0.1,2.14c-0.26,2.79-2.34,4.66-5.1,4.63c-2.59-0.03-4.73-2.08-4.94-4.73
	c-0.05-0.63-0.05-1.27-0.05-1.91c-0.03-13-0.05-26-0.09-39c0-0.88,0.24-2.12-1.03-2.17c-1.38-0.05-1.17,1.22-1.17,2.15
	c0,13.24-0.02,26.48,0.01,39.72c0,1.89-0.38,3.55-1.91,4.77c-1.53,1.22-3.22,1.51-5.03,0.78c-1.87-0.75-2.89-2.17-3.11-4.16
	c-0.08-0.67-0.07-1.35-0.07-2.03C603.31,422.61,603.31,411.28,603.31,399.95z"/>
<path class="st4" d="M605.95,337.43c0.03-4.69,3.93-8.55,8.61-8.54c4.65,0.02,8.58,3.95,8.58,8.59c0,4.7-4.01,8.66-8.7,8.6
	C609.75,346.03,605.92,342.12,605.95,337.43z"/>
<path class="st4" d="M664.1,399.95c0-11.69,0-23.38,0-35.07c0-0.91,0.13-2.08-1.14-2.1c-1.31-0.03-1.15,1.17-1.15,2.06
	c-0.01,7.83,0,15.66,0,23.5c0,1.6-0.22,3.11-1.73,4.07c-1.28,0.81-2.61,0.92-3.97,0.26c-1.41-0.68-2.2-1.83-2.21-3.41
	c-0.01-9.86-0.11-19.72,0.04-29.58c0.1-6.32,5.27-11.2,11.58-11.26c6.48-0.05,12.96-0.05,19.44,0c6.42,0.05,11.7,5.04,11.81,11.5
	c0.16,9.66,0.08,19.32,0.04,28.98c-0.01,2.61-1.68,4.22-4.06,4.16c-2.31-0.06-3.79-1.69-3.79-4.28c-0.01-7.95-0.01-15.9-0.01-23.86
	c0-0.32,0.11-0.71-0.03-0.94c-0.29-0.45-0.72-0.82-1.1-1.22c-0.37,0.4-0.84,0.74-1.08,1.2c-0.18,0.35-0.05,0.86-0.05,1.29
	c0,22.82,0,45.64,0,68.46c0,0.71-0.03,1.43-0.1,2.14c-0.26,2.79-2.34,4.66-5.1,4.63c-2.59-0.03-4.73-2.08-4.94-4.73
	c-0.05-0.63-0.05-1.27-0.05-1.91c-0.03-13-0.05-26-0.09-39c0-0.88,0.24-2.12-1.03-2.17c-1.38-0.05-1.17,1.22-1.17,2.15
	c0,13.24-0.02,26.48,0.01,39.72c0,1.89-0.38,3.55-1.91,4.77c-1.53,1.22-3.22,1.51-5.03,0.78c-1.87-0.75-2.89-2.17-3.11-4.16
	c-0.08-0.67-0.07-1.35-0.07-2.03C664.1,422.61,664.1,411.28,664.1,399.95z"/>
<path class="st4" d="M666.74,337.43c0.03-4.69,3.93-8.55,8.61-8.54c4.65,0.02,8.58,3.95,8.58,8.59c0,4.7-4.01,8.66-8.7,8.6
	C670.54,346.03,666.71,342.12,666.74,337.43z"/>
<path class="st4" d="M127.03,529.14c0-11.69,0-23.38,0-35.07c0-0.91,0.13-2.08-1.14-2.1c-1.31-0.03-1.15,1.17-1.15,2.06
	c-0.01,7.83,0,15.66,0,23.5c0,1.6-0.22,3.11-1.73,4.07c-1.28,0.81-2.61,0.92-3.97,0.26c-1.41-0.68-2.2-1.83-2.21-3.41
	c-0.01-9.86-0.11-19.72,0.04-29.58c0.1-6.32,5.27-11.2,11.58-11.26c6.48-0.05,12.96-0.05,19.44,0c6.42,0.05,11.7,5.04,11.81,11.5
	c0.16,9.66,0.08,19.32,0.04,28.98c-0.01,2.61-1.68,4.22-4.06,4.16c-2.31-0.06-3.79-1.69-3.79-4.28c-0.01-7.95-0.01-15.9-0.01-23.86
	c0-0.32,0.11-0.71-0.03-0.94c-0.29-0.45-0.72-0.82-1.1-1.22c-0.37,0.4-0.84,0.74-1.08,1.2c-0.18,0.35-0.05,0.86-0.05,1.29
	c0,22.82,0,45.64,0,68.46c0,0.71-0.03,1.43-0.1,2.14c-0.26,2.79-2.34,4.66-5.1,4.63c-2.59-0.03-4.73-2.08-4.94-4.73
	c-0.05-0.63-0.05-1.27-0.05-1.91c-0.03-13-0.05-26-0.09-39c0-0.88,0.24-2.12-1.03-2.17c-1.38-0.05-1.17,1.22-1.17,2.15
	c0,13.24-0.02,26.48,0.01,39.72c0,1.89-0.38,3.55-1.91,4.77c-1.53,1.22-3.22,1.51-5.03,0.78c-1.87-0.75-2.89-2.17-3.11-4.16
	c-0.08-0.67-0.07-1.35-0.07-2.03C127.03,551.8,127.03,540.47,127.03,529.14z"/>
<path class="st4" d="M129.67,466.62c0.03-4.69,3.93-8.55,8.61-8.54c4.65,0.02,8.58,3.95,8.58,8.59c0,4.7-4.01,8.66-8.7,8.6
	C133.47,475.21,129.64,471.31,129.67,466.62z"/>
<path class="st4" d="M186.61,529.14c0-11.69,0-23.38,0-35.07c0-0.91,0.13-2.08-1.14-2.1c-1.31-0.03-1.15,1.17-1.15,2.06
	c-0.01,7.83,0,15.66,0,23.5c0,1.6-0.22,3.11-1.73,4.07c-1.28,0.81-2.61,0.92-3.97,0.26c-1.41-0.68-2.2-1.83-2.21-3.41
	c-0.01-9.86-0.11-19.72,0.04-29.58c0.1-6.32,5.27-11.2,11.58-11.26c6.48-0.05,12.96-0.05,19.44,0c6.42,0.05,11.7,5.04,11.81,11.5
	c0.16,9.66,0.08,19.32,0.04,28.98c-0.01,2.61-1.68,4.22-4.06,4.16c-2.31-0.06-3.79-1.69-3.79-4.28c-0.01-7.95-0.01-15.9-0.01-23.86
	c0-0.32,0.11-0.71-0.03-0.94c-0.29-0.45-0.72-0.82-1.1-1.22c-0.37,0.4-0.84,0.74-1.08,1.2c-0.18,0.35-0.05,0.86-0.05,1.29
	c0,22.82,0,45.64,0,68.46c0,0.71-0.03,1.43-0.1,2.14c-0.26,2.79-2.34,4.66-5.1,4.63c-2.59-0.03-4.73-2.08-4.94-4.73
	c-0.05-0.63-0.05-1.27-0.05-1.91c-0.03-13-0.05-26-0.09-39c0-0.88,0.24-2.12-1.03-2.17c-1.38-0.05-1.17,1.22-1.17,2.15
	c0,13.24-0.02,26.48,0.01,39.72c0,1.89-0.38,3.55-1.91,4.77c-1.53,1.22-3.22,1.51-5.03,0.78c-1.87-0.75-2.89-2.17-3.11-4.16
	c-0.08-0.67-0.07-1.35-0.07-2.03C186.6,551.8,186.61,540.47,186.61,529.14z"/>
<path class="st4" d="M189.25,466.62c0.03-4.69,3.93-8.55,8.61-8.54c4.65,0.02,8.58,3.95,8.58,8.59c0,4.7-4.01,8.66-8.7,8.6
	C193.04,475.21,189.21,471.31,189.25,466.62z"/>
<path class="st4" d="M246.12,529.14c0-11.69,0-23.38,0-35.07c0-0.91,0.13-2.08-1.14-2.1c-1.31-0.03-1.15,1.17-1.15,2.06
	c-0.01,7.83,0,15.66,0,23.5c0,1.6-0.22,3.11-1.73,4.07c-1.28,0.81-2.61,0.92-3.97,0.26c-1.41-0.68-2.2-1.83-2.21-3.41
	c-0.01-9.86-0.11-19.72,0.04-29.58c0.1-6.32,5.27-11.2,11.58-11.26c6.48-0.05,12.96-0.05,19.44,0c6.42,0.05,11.7,5.04,11.81,11.5
	c0.16,9.66,0.08,19.32,0.04,28.98c-0.01,2.61-1.68,4.22-4.06,4.16c-2.31-0.06-3.79-1.69-3.79-4.28c-0.01-7.95-0.01-15.9-0.01-23.86
	c0-0.32,0.11-0.71-0.03-0.94c-0.29-0.45-0.72-0.82-1.1-1.22c-0.37,0.4-0.84,0.74-1.08,1.2c-0.18,0.35-0.05,0.86-0.05,1.29
	c0,22.82,0,45.64,0,68.46c0,0.71-0.03,1.43-0.1,2.14c-0.26,2.79-2.34,4.66-5.1,4.63c-2.59-0.03-4.73-2.08-4.94-4.73
	c-0.05-0.63-0.05-1.27-0.05-1.91c-0.03-13-0.05-26-0.09-39c0-0.88,0.24-2.12-1.03-2.17c-1.38-0.05-1.17,1.22-1.17,2.15
	c0,13.24-0.02,26.48,0.01,39.72c0,1.89-0.38,3.55-1.91,4.77c-1.53,1.22-3.22,1.51-5.03,0.78c-1.87-0.75-2.89-2.17-3.11-4.16
	c-0.08-0.67-0.07-1.35-0.07-2.03C246.12,551.8,246.12,540.47,246.12,529.14z"/>
<path class="st4" d="M248.76,466.62c0.03-4.69,3.93-8.55,8.61-8.54c4.65,0.02,8.58,3.95,8.58,8.59c0,4.7-4.01,8.66-8.7,8.6
	C252.56,475.21,248.73,471.31,248.76,466.62z"/>
<path class="st4" d="M305.38,529.14c0-11.69,0-23.38,0-35.07c0-0.91,0.13-2.08-1.14-2.1c-1.31-0.03-1.15,1.17-1.15,2.06
	c-0.01,7.83,0,15.66,0,23.5c0,1.6-0.22,3.11-1.73,4.07c-1.28,0.81-2.61,0.92-3.97,0.26c-1.41-0.68-2.2-1.83-2.21-3.41
	c-0.01-9.86-0.11-19.72,0.04-29.58c0.1-6.32,5.27-11.2,11.58-11.26c6.48-0.05,12.96-0.05,19.44,0c6.42,0.05,11.7,5.04,11.81,11.5
	c0.16,9.66,0.08,19.32,0.04,28.98c-0.01,2.61-1.68,4.22-4.06,4.16c-2.31-0.06-3.79-1.69-3.79-4.28c-0.01-7.95-0.01-15.9-0.01-23.86
	c0-0.32,0.11-0.71-0.03-0.94c-0.29-0.45-0.72-0.82-1.1-1.22c-0.37,0.4-0.84,0.74-1.08,1.2c-0.18,0.35-0.05,0.86-0.05,1.29
	c0,22.82,0,45.64,0,68.46c0,0.71-0.03,1.43-0.1,2.14c-0.26,2.79-2.34,4.66-5.1,4.63c-2.59-0.03-4.73-2.08-4.94-4.73
	c-0.05-0.63-0.05-1.27-0.05-1.91c-0.03-13-0.05-26-0.09-39c0-0.88,0.24-2.12-1.03-2.17c-1.38-0.05-1.17,1.22-1.17,2.15
	c0,13.24-0.02,26.48,0.01,39.72c0,1.89-0.38,3.55-1.91,4.77c-1.53,1.22-3.22,1.51-5.03,0.78c-1.87-0.75-2.89-2.17-3.11-4.16
	c-0.08-0.67-0.07-1.35-0.07-2.03C305.37,551.8,305.38,540.47,305.38,529.14z"/>
<path class="st4" d="M308.02,466.62c0.03-4.69,3.93-8.55,8.61-8.54c4.65,0.02,8.58,3.95,8.58,8.59c0,4.7-4.01,8.66-8.7,8.6
	C311.81,475.21,307.98,471.31,308.02,466.62z"/>
<path class="st4" d="M364.95,529.14c0-11.69,0-23.38,0-35.07c0-0.91,0.13-2.08-1.14-2.1c-1.31-0.03-1.15,1.17-1.15,2.06
	c-0.01,7.83,0,15.66,0,23.5c0,1.6-0.22,3.11-1.73,4.07c-1.28,0.81-2.61,0.92-3.97,0.26c-1.41-0.68-2.2-1.83-2.21-3.41
	c-0.01-9.86-0.11-19.72,0.04-29.58c0.1-6.32,5.27-11.2,11.58-11.26c6.48-0.05,12.96-0.05,19.44,0c6.42,0.05,11.7,5.04,11.81,11.5
	c0.16,9.66,0.08,19.32,0.04,28.98c-0.01,2.61-1.68,4.22-4.06,4.16c-2.31-0.06-3.79-1.69-3.79-4.28c-0.01-7.95-0.01-15.9-0.01-23.86
	c0-0.32,0.11-0.71-0.03-0.94c-0.29-0.45-0.72-0.82-1.1-1.22c-0.37,0.4-0.84,0.74-1.08,1.2c-0.18,0.35-0.05,0.86-0.05,1.29
	c0,22.82,0,45.64,0,68.46c0,0.71-0.03,1.43-0.1,2.14c-0.26,2.79-2.34,4.66-5.1,4.63c-2.59-0.03-4.73-2.08-4.94-4.73
	c-0.05-0.63-0.05-1.27-0.05-1.91c-0.03-13-0.05-26-0.09-39c0-0.88,0.24-2.12-1.03-2.17c-1.38-0.05-1.17,1.22-1.17,2.15
	c0,13.24-0.02,26.48,0.01,39.72c0,1.89-0.38,3.55-1.91,4.77c-1.53,1.22-3.22,1.51-5.03,0.78c-1.87-0.75-2.89-2.17-3.11-4.16
	c-0.08-0.67-0.07-1.35-0.07-2.03C364.95,551.8,364.95,540.47,364.95,529.14z"/>
<path class="st4" d="M367.59,466.62c0.03-4.69,3.93-8.55,8.61-8.54c4.65,0.02,8.58,3.95,8.58,8.59c0,4.7-4.01,8.66-8.7,8.6
	C371.39,475.21,367.56,471.31,367.59,466.62z"/>
<path class="st4" d="M424.46,529.14c0-11.69,0-23.38,0-35.07c0-0.91,0.13-2.08-1.14-2.1c-1.31-0.03-1.15,1.17-1.15,2.06
	c-0.01,7.83,0,15.66,0,23.5c0,1.6-0.22,3.11-1.73,4.07c-1.28,0.81-2.61,0.92-3.97,0.26c-1.41-0.68-2.2-1.83-2.21-3.41
	c-0.01-9.86-0.11-19.72,0.04-29.58c0.1-6.32,5.27-11.2,11.58-11.26c6.48-0.05,12.96-0.05,19.44,0c6.42,0.05,11.7,5.04,11.81,11.5
	c0.16,9.66,0.08,19.32,0.04,28.98c-0.01,2.61-1.68,4.22-4.06,4.16c-2.31-0.06-3.79-1.69-3.79-4.28c-0.01-7.95-0.01-15.9-0.01-23.86
	c0-0.32,0.11-0.71-0.03-0.94c-0.29-0.45-0.72-0.82-1.1-1.22c-0.37,0.4-0.84,0.74-1.08,1.2c-0.18,0.35-0.05,0.86-0.05,1.29
	c0,22.82,0,45.64,0,68.46c0,0.71-0.03,1.43-0.1,2.14c-0.26,2.79-2.34,4.66-5.1,4.63c-2.59-0.03-4.73-2.08-4.94-4.73
	c-0.05-0.63-0.05-1.27-0.05-1.91c-0.03-13-0.05-26-0.09-39c0-0.88,0.24-2.12-1.03-2.17c-1.38-0.05-1.17,1.22-1.17,2.15
	c0,13.24-0.02,26.48,0.01,39.72c0,1.89-0.38,3.55-1.91,4.77c-1.53,1.22-3.22,1.51-5.03,0.78c-1.87-0.75-2.89-2.17-3.11-4.16
	c-0.08-0.67-0.07-1.35-0.07-2.03C424.46,551.8,424.46,540.47,424.46,529.14z"/>
<path class="st4" d="M427.1,466.62c0.03-4.69,3.93-8.55,8.61-8.54c4.65,0.02,8.58,3.95,8.58,8.59c0,4.7-4.01,8.66-8.7,8.6
	C430.9,475.21,427.07,471.31,427.1,466.62z"/>
<path class="st4" d="M486.54,529.14c0-11.69,0-23.38,0-35.07c0-0.91,0.13-2.08-1.14-2.1c-1.31-0.03-1.15,1.17-1.15,2.06
	c-0.01,7.83,0,15.66,0,23.5c0,1.6-0.22,3.11-1.73,4.07c-1.28,0.81-2.61,0.92-3.97,0.26c-1.41-0.68-2.2-1.83-2.21-3.41
	c-0.01-9.86-0.11-19.72,0.04-29.58c0.1-6.32,5.27-11.2,11.58-11.26c6.48-0.05,12.96-0.05,19.44,0c6.42,0.05,11.7,5.04,11.81,11.5
	c0.16,9.66,0.08,19.32,0.04,28.98c-0.01,2.61-1.68,4.22-4.06,4.16c-2.31-0.06-3.79-1.69-3.79-4.28c-0.01-7.95-0.01-15.9-0.01-23.86
	c0-0.32,0.11-0.71-0.03-0.94c-0.29-0.45-0.72-0.82-1.1-1.22c-0.37,0.4-0.84,0.74-1.08,1.2c-0.18,0.35-0.05,0.86-0.05,1.29
	c0,22.82,0,45.64,0,68.46c0,0.71-0.03,1.43-0.1,2.14c-0.26,2.79-2.34,4.66-5.1,4.63c-2.59-0.03-4.73-2.08-4.94-4.73
	c-0.05-0.63-0.05-1.27-0.05-1.91c-0.03-13-0.05-26-0.09-39c0-0.88,0.24-2.12-1.03-2.17c-1.38-0.05-1.17,1.22-1.17,2.15
	c0,13.24-0.02,26.48,0.01,39.72c0,1.89-0.38,3.55-1.91,4.77c-1.53,1.22-3.22,1.51-5.03,0.78c-1.87-0.75-2.89-2.17-3.11-4.16
	c-0.08-0.67-0.07-1.35-0.07-2.03C486.54,551.8,486.54,540.47,486.54,529.14z"/>
<path class="st4" d="M489.18,466.62c0.03-4.69,3.93-8.55,8.61-8.54c4.65,0.02,8.58,3.95,8.58,8.59c0,4.7-4.01,8.66-8.7,8.6
	C492.98,475.21,489.15,471.31,489.18,466.62z"/>
<path class="st4" d="M546.11,529.14c0-11.69,0-23.38,0-35.07c0-0.91,0.13-2.08-1.14-2.1c-1.31-0.03-1.15,1.17-1.15,2.06
	c-0.01,7.83,0,15.66,0,23.5c0,1.6-0.22,3.11-1.73,4.07c-1.28,0.81-2.61,0.92-3.97,0.26c-1.41-0.68-2.2-1.83-2.21-3.41
	c-0.01-9.86-0.11-19.72,0.04-29.58c0.1-6.32,5.27-11.2,11.58-11.26c6.48-0.05,12.96-0.05,19.44,0c6.42,0.05,11.7,5.04,11.81,11.5
	c0.16,9.66,0.08,19.32,0.04,28.98c-0.01,2.61-1.68,4.22-4.06,4.16c-2.31-0.06-3.79-1.69-3.79-4.28c-0.01-7.95-0.01-15.9-0.01-23.86
	c0-0.32,0.11-0.71-0.03-0.94c-0.29-0.45-0.72-0.82-1.1-1.22c-0.37,0.4-0.84,0.74-1.08,1.2c-0.18,0.35-0.05,0.86-0.05,1.29
	c0,22.82,0,45.64,0,68.46c0,0.71-0.03,1.43-0.1,2.14c-0.26,2.79-2.34,4.66-5.1,4.63c-2.59-0.03-4.73-2.08-4.94-4.73
	c-0.05-0.63-0.05-1.27-0.05-1.91c-0.03-13-0.05-26-0.09-39c0-0.88,0.24-2.12-1.03-2.17c-1.38-0.05-1.17,1.22-1.17,2.15
	c0,13.24-0.02,26.48,0.01,39.72c0,1.89-0.38,3.55-1.91,4.77c-1.53,1.22-3.22,1.51-5.03,0.78c-1.87-0.75-2.89-2.17-3.11-4.16
	c-0.08-0.67-0.07-1.35-0.07-2.03C546.11,551.8,546.11,540.47,546.11,529.14z"/>
<path class="st4" d="M548.75,466.62c0.03-4.69,3.93-8.55,8.61-8.54c4.65,0.02,8.58,3.95,8.58,8.59c0,4.7-4.01,8.66-8.7,8.6
	C552.55,475.21,548.72,471.31,548.75,466.62z"/>
<path class="st4" d="M605.63,529.14c0-11.69,0-23.38,0-35.07c0-0.91,0.13-2.08-1.14-2.1c-1.31-0.03-1.15,1.17-1.15,2.06
	c-0.01,7.83,0,15.66,0,23.5c0,1.6-0.22,3.11-1.73,4.07c-1.28,0.81-2.61,0.92-3.97,0.26c-1.41-0.68-2.2-1.83-2.21-3.41
	c-0.01-9.86-0.11-19.72,0.04-29.58c0.1-6.32,5.27-11.2,11.58-11.26c6.48-0.05,12.96-0.05,19.44,0c6.42,0.05,11.7,5.04,11.81,11.5
	c0.16,9.66,0.08,19.32,0.04,28.98c-0.01,2.61-1.68,4.22-4.06,4.16c-2.31-0.06-3.79-1.69-3.79-4.28c-0.01-7.95-0.01-15.9-0.01-23.86
	c0-0.32,0.11-0.71-0.03-0.94c-0.29-0.45-0.72-0.82-1.1-1.22c-0.37,0.4-0.84,0.74-1.08,1.2c-0.18,0.35-0.05,0.86-0.05,1.29
	c0,22.82,0,45.64,0,68.46c0,0.71-0.03,1.43-0.1,2.14c-0.26,2.79-2.34,4.66-5.1,4.63c-2.59-0.03-4.73-2.08-4.94-4.73
	c-0.05-0.63-0.05-1.27-0.05-1.91c-0.03-13-0.05-26-0.09-39c0-0.88,0.24-2.12-1.03-2.17c-1.38-0.05-1.17,1.22-1.17,2.15
	c0,13.24-0.02,26.48,0.01,39.72c0,1.89-0.38,3.55-1.91,4.77c-1.53,1.22-3.22,1.51-5.03,0.78c-1.87-0.75-2.89-2.17-3.11-4.16
	c-0.08-0.67-0.07-1.35-0.07-2.03C605.63,551.8,605.63,540.47,605.63,529.14z"/>
<path class="st4" d="M608.27,466.62c0.03-4.69,3.93-8.55,8.61-8.54c4.65,0.02,8.58,3.95,8.58,8.59c0,4.7-4.01,8.66-8.7,8.6
	C612.07,475.21,608.24,471.31,608.27,466.62z"/>
<path class="st4" d="M666.42,529.14c0-11.69,0-23.38,0-35.07c0-0.91,0.13-2.08-1.14-2.1c-1.31-0.03-1.15,1.17-1.15,2.06
	c-0.01,7.83,0,15.66,0,23.5c0,1.6-0.22,3.11-1.73,4.07c-1.28,0.81-2.61,0.92-3.97,0.26c-1.41-0.68-2.2-1.83-2.21-3.41
	c-0.01-9.86-0.11-19.72,0.04-29.58c0.1-6.32,5.27-11.2,11.58-11.26c6.48-0.05,12.96-0.05,19.44,0c6.42,0.05,11.7,5.04,11.81,11.5
	c0.16,9.66,0.08,19.32,0.04,28.98c-0.01,2.61-1.68,4.22-4.06,4.16c-2.31-0.06-3.79-1.69-3.79-4.28c-0.01-7.95-0.01-15.9-0.01-23.86
	c0-0.32,0.11-0.71-0.03-0.94c-0.29-0.45-0.72-0.82-1.1-1.22c-0.37,0.4-0.84,0.74-1.08,1.2c-0.18,0.35-0.05,0.86-0.05,1.29
	c0,22.82,0,45.64,0,68.46c0,0.71-0.03,1.43-0.1,2.14c-0.26,2.79-2.34,4.66-5.1,4.63c-2.59-0.03-4.73-2.08-4.94-4.73
	c-0.05-0.63-0.05-1.27-0.05-1.91c-0.03-13-0.05-26-0.09-39c0-0.88,0.24-2.12-1.03-2.17c-1.38-0.05-1.17,1.22-1.17,2.15
	c0,13.24-0.02,26.48,0.01,39.72c0,1.89-0.38,3.55-1.91,4.77c-1.53,1.22-3.22,1.51-5.03,0.78c-1.87-0.75-2.89-2.17-3.11-4.16
	c-0.08-0.67-0.07-1.35-0.07-2.03C666.42,551.8,666.42,540.47,666.42,529.14z"/>
<path class="st4" d="M669.06,466.62c0.03-4.69,3.93-8.55,8.61-8.54c4.65,0.02,8.58,3.95,8.58,8.59c0,4.7-4.01,8.66-8.7,8.6
	C672.86,475.21,669.03,471.31,669.06,466.62z"/>
<path class="st4" d="M126.22,658.32c0-11.69,0-23.38,0-35.07c0-0.91,0.13-2.08-1.14-2.1c-1.31-0.03-1.15,1.17-1.15,2.06
	c-0.01,7.83,0,15.66,0,23.5c0,1.6-0.22,3.11-1.73,4.07c-1.28,0.81-2.61,0.92-3.97,0.26c-1.41-0.68-2.2-1.83-2.21-3.41
	c-0.01-9.86-0.11-19.72,0.04-29.58c0.1-6.32,5.27-11.2,11.58-11.26c6.48-0.05,12.96-0.05,19.44,0c6.42,0.05,11.7,5.04,11.81,11.5
	c0.16,9.66,0.08,19.32,0.04,28.98c-0.01,2.61-1.68,4.22-4.06,4.16c-2.31-0.06-3.79-1.69-3.79-4.28c-0.01-7.95-0.01-15.9-0.01-23.86
	c0-0.32,0.11-0.71-0.03-0.94c-0.29-0.45-0.72-0.82-1.1-1.22c-0.37,0.4-0.84,0.74-1.08,1.2c-0.18,0.35-0.05,0.86-0.05,1.29
	c0,22.82,0,45.64,0,68.46c0,0.71-0.03,1.43-0.1,2.14c-0.26,2.79-2.34,4.66-5.1,4.63c-2.59-0.03-4.73-2.08-4.94-4.73
	c-0.05-0.63-0.05-1.27-0.05-1.91c-0.03-13-0.05-26-0.09-39c0-0.88,0.24-2.12-1.03-2.17c-1.38-0.05-1.17,1.22-1.17,2.15
	c0,13.24-0.02,26.48,0.01,39.72c0,1.89-0.38,3.55-1.91,4.77c-1.53,1.22-3.22,1.51-5.03,0.78c-1.87-0.75-2.89-2.17-3.11-4.16
	c-0.08-0.67-0.07-1.35-0.07-2.03C126.22,680.98,126.22,669.65,126.22,658.32z"/>
<path class="st4" d="M128.86,595.8c0.03-4.69,3.93-8.55,8.61-8.54c4.65,0.02,8.58,3.95,8.58,8.59c0,4.7-4.01,8.66-8.7,8.6
	C132.66,604.4,128.83,600.49,128.86,595.8z"/>
<path class="st4" d="M185.8,658.32c0-11.69,0-23.38,0-35.07c0-0.91,0.13-2.08-1.14-2.1c-1.31-0.03-1.15,1.17-1.15,2.06
	c-0.01,7.83,0,15.66,0,23.5c0,1.6-0.22,3.11-1.73,4.07c-1.28,0.81-2.61,0.92-3.97,0.26c-1.41-0.68-2.2-1.83-2.21-3.41
	c-0.01-9.86-0.11-19.72,0.04-29.58c0.1-6.32,5.27-11.2,11.58-11.26c6.48-0.05,12.96-0.05,19.44,0c6.42,0.05,11.7,5.04,11.81,11.5
	c0.16,9.66,0.08,19.32,0.04,28.98c-0.01,2.61-1.68,4.22-4.06,4.16c-2.31-0.06-3.79-1.69-3.79-4.28c-0.01-7.95-0.01-15.9-0.01-23.86
	c0-0.32,0.11-0.71-0.03-0.94c-0.29-0.45-0.72-0.82-1.1-1.22c-0.37,0.4-0.84,0.74-1.08,1.2c-0.18,0.35-0.05,0.86-0.05,1.29
	c0,22.82,0,45.64,0,68.46c0,0.71-0.03,1.43-0.1,2.14c-0.26,2.79-2.34,4.66-5.1,4.63c-2.59-0.03-4.73-2.08-4.94-4.73
	c-0.05-0.63-0.05-1.27-0.05-1.91c-0.03-13-0.05-26-0.09-39c0-0.88,0.24-2.12-1.03-2.17c-1.38-0.05-1.17,1.22-1.17,2.15
	c0,13.24-0.02,26.48,0.01,39.72c0,1.89-0.38,3.55-1.91,4.77c-1.53,1.22-3.22,1.51-5.03,0.78c-1.87-0.75-2.89-2.17-3.11-4.16
	c-0.08-0.67-0.07-1.35-0.07-2.03C185.8,680.98,185.8,669.65,185.8,658.32z"/>
<path class="st4" d="M188.44,595.8c0.03-4.69,3.93-8.55,8.61-8.54c4.65,0.02,8.58,3.95,8.58,8.59c0,4.7-4.01,8.66-8.7,8.6
	C192.24,604.4,188.41,600.49,188.44,595.8z"/>
<path class="st4" d="M245.31,658.32c0-11.69,0-23.38,0-35.07c0-0.91,0.13-2.08-1.14-2.1c-1.31-0.03-1.15,1.17-1.15,2.06
	c-0.01,7.83,0,15.66,0,23.5c0,1.6-0.22,3.11-1.73,4.07c-1.28,0.81-2.61,0.92-3.97,0.26c-1.41-0.68-2.2-1.83-2.21-3.41
	c-0.01-9.86-0.11-19.72,0.04-29.58c0.1-6.32,5.27-11.2,11.58-11.26c6.48-0.05,12.96-0.05,19.44,0c6.42,0.05,11.7,5.04,11.81,11.5
	c0.16,9.66,0.08,19.32,0.04,28.98c-0.01,2.61-1.68,4.22-4.06,4.16c-2.31-0.06-3.79-1.69-3.79-4.28c-0.01-7.95-0.01-15.9-0.01-23.86
	c0-0.32,0.11-0.71-0.03-0.94c-0.29-0.45-0.72-0.82-1.1-1.22c-0.37,0.4-0.84,0.74-1.08,1.2c-0.18,0.35-0.05,0.86-0.05,1.29
	c0,22.82,0,45.64,0,68.46c0,0.71-0.03,1.43-0.1,2.14c-0.26,2.79-2.34,4.66-5.1,4.63c-2.59-0.03-4.73-2.08-4.94-4.73
	c-0.05-0.63-0.05-1.27-0.05-1.91c-0.03-13-0.05-26-0.09-39c0-0.88,0.24-2.12-1.03-2.17c-1.38-0.05-1.17,1.22-1.17,2.15
	c0,13.24-0.02,26.48,0.01,39.72c0,1.89-0.38,3.55-1.91,4.77c-1.53,1.22-3.22,1.51-5.03,0.78c-1.87-0.75-2.89-2.17-3.11-4.16
	c-0.08-0.67-0.07-1.35-0.07-2.03C245.31,680.98,245.31,669.65,245.31,658.32z"/>
<path class="st4" d="M247.95,595.8c0.03-4.69,3.93-8.55,8.61-8.54c4.65,0.02,8.58,3.95,8.58,8.59c0,4.7-4.01,8.66-8.7,8.6
	C251.75,604.4,247.92,600.49,247.95,595.8z"/>
<path class="st4" d="M304.57,658.32c0-11.69,0-23.38,0-35.07c0-0.91,0.13-2.08-1.14-2.1c-1.31-0.03-1.15,1.17-1.15,2.06
	c-0.01,7.83,0,15.66,0,23.5c0,1.6-0.22,3.11-1.73,4.07c-1.28,0.81-2.61,0.92-3.97,0.26c-1.41-0.68-2.2-1.83-2.21-3.41
	c-0.01-9.86-0.11-19.72,0.04-29.58c0.1-6.32,5.27-11.2,11.58-11.26c6.48-0.05,12.96-0.05,19.44,0c6.42,0.05,11.7,5.04,11.81,11.5
	c0.16,9.66,0.08,19.32,0.04,28.98c-0.01,2.61-1.68,4.22-4.06,4.16c-2.31-0.06-3.79-1.69-3.79-4.28c-0.01-7.95-0.01-15.9-0.01-23.86
	c0-0.32,0.11-0.71-0.03-0.94c-0.29-0.45-0.72-0.82-1.1-1.22c-0.37,0.4-0.84,0.74-1.08,1.2c-0.18,0.35-0.05,0.86-0.05,1.29
	c0,22.82,0,45.64,0,68.46c0,0.71-0.03,1.43-0.1,2.14c-0.26,2.79-2.34,4.66-5.1,4.63c-2.59-0.03-4.73-2.08-4.94-4.73
	c-0.05-0.63-0.05-1.27-0.05-1.91c-0.03-13-0.05-26-0.09-39c0-0.88,0.24-2.12-1.03-2.17c-1.38-0.05-1.17,1.22-1.17,2.15
	c0,13.24-0.02,26.48,0.01,39.72c0,1.89-0.38,3.55-1.91,4.77c-1.53,1.22-3.22,1.51-5.03,0.78c-1.87-0.75-2.89-2.17-3.11-4.16
	c-0.08-0.67-0.07-1.35-0.07-2.03C304.56,680.98,304.57,669.65,304.57,658.32z"/>
<path class="st4" d="M307.21,595.8c0.03-4.69,3.93-8.55,8.61-8.54c4.65,0.02,8.58,3.95,8.58,8.59c0,4.7-4.01,8.66-8.7,8.6
	C311.01,604.4,307.18,600.49,307.21,595.8z"/>
<path class="st4" d="M364.14,658.32c0-11.69,0-23.38,0-35.07c0-0.91,0.13-2.08-1.14-2.1c-1.31-0.03-1.15,1.17-1.15,2.06
	c-0.01,7.83,0,15.66,0,23.5c0,1.6-0.22,3.11-1.73,4.07c-1.28,0.81-2.61,0.92-3.97,0.26c-1.41-0.68-2.2-1.83-2.21-3.41
	c-0.01-9.86-0.11-19.72,0.04-29.58c0.1-6.32,5.27-11.2,11.58-11.26c6.48-0.05,12.96-0.05,19.44,0c6.42,0.05,11.7,5.04,11.81,11.5
	c0.16,9.66,0.08,19.32,0.04,28.98c-0.01,2.61-1.68,4.22-4.06,4.16c-2.31-0.06-3.79-1.69-3.79-4.28c-0.01-7.95-0.01-15.9-0.01-23.86
	c0-0.32,0.11-0.71-0.03-0.94c-0.29-0.45-0.72-0.82-1.1-1.22c-0.37,0.4-0.84,0.74-1.08,1.2c-0.18,0.35-0.05,0.86-0.05,1.29
	c0,22.82,0,45.64,0,68.46c0,0.71-0.03,1.43-0.1,2.14c-0.26,2.79-2.34,4.66-5.1,4.63c-2.59-0.03-4.73-2.08-4.94-4.73
	c-0.05-0.63-0.05-1.27-0.05-1.91c-0.03-13-0.05-26-0.09-39c0-0.88,0.24-2.12-1.03-2.17c-1.38-0.05-1.17,1.22-1.17,2.15
	c0,13.24-0.02,26.48,0.01,39.72c0,1.89-0.38,3.55-1.91,4.77c-1.53,1.22-3.22,1.51-5.03,0.78c-1.87-0.75-2.89-2.17-3.11-4.16
	c-0.08-0.67-0.07-1.35-0.07-2.03C364.14,680.98,364.14,669.65,364.14,658.32z"/>
<path class="st4" d="M366.78,595.8c0.03-4.69,3.93-8.55,8.61-8.54c4.65,0.02,8.58,3.95,8.58,8.59c0,4.7-4.01,8.66-8.7,8.6
	C370.58,604.4,366.75,600.49,366.78,595.8z"/>
<rect x="725.87" y="127.3" class="st2" width="26.74" height="26.74"/>
<rect x="725.87" y="88.6" class="st1" width="26.74" height="26.74"/>
<rect x="725.87" y="166" class="st4" width="26.74" height="26.74"/>
<text transform="matrix(1 0 0 1 763.0265 105.0251)" class="st5 st6">Tripulantes de vuelo</text>
<text transform="matrix(1 0 0 1 763.4093 143.6755)" class="st5 st6">Jugadores de rugby  Old Christians </text>
<text transform="matrix(1 0 0 1 763.4093 184.2908)" class="st5 st6">Acompaantes, familiares, amigos </text>
<text transform="matrix(1 0 0 1 424.2199 140.9645)" class="st7 st5 st8">*</text>
<text transform="matrix(1 0 0 1 486.4987 140.9645)" class="st7 st5 st8">*</text>
<text transform="matrix(1 0 0 1 546.8849 140.9655)" class="st7 st5 st8">*</text>
<text transform="matrix(1 0 0 1 606.3371 140.965)" class="st7 st5 st8">*</text>
<text transform="matrix(1 0 0 1 666.7238 140.9655)" class="st7 st5 st8">*</text>
<text transform="matrix(1 0 0 1 363.4455 402.0827)" class="st7 st5 st8">*</text>
<text transform="matrix(1 0 0 1 425.7243 402.0827)" class="st7 st5 st8">*</text>
<text transform="matrix(1 0 0 1 486.1105 402.0837)" class="st7 st5 st8">*</text>
<text transform="matrix(1 0 0 1 545.5632 402.0837)" class="st7 st5 st8">*</text>
<text transform="matrix(1 0 0 1 605.9494 402.0837)" class="st7 st5 st8">*</text>
<text transform="matrix(1 0 0 1 666.1906 402.0847)" class="st7 st5 st8">*</text>
<text transform="matrix(1 0 0 1 128.0041 531.2682)" class="st7 st5 st8">*</text>
<text transform="matrix(1 0 0 1 188.946 531.2682)" class="st7 st5 st8">*</text>
<text transform="matrix(1 0 0 1 246.3542 531.2682)" class="st7 st5 st8">*</text>
<text transform="matrix(1 0 0 1 307.5954 531.2682)" class="st7 st5 st8">*</text>
<text transform="matrix(1 0 0 1 732.0167 239.5994)" class="st7 st5 st9">*</text>
<text transform="matrix(1 0 0 1 763.8605 222.0281)" class="st5 st6">Sobrevivientes  </text>
</svg>
